<ttFont>
          <CharString index="0">
            vlineto
            -104 callgsubr
            return
          </CharString>
          <CharString index="1">
            -6 -26 vhcurveto
            -205 -105 callsubr
            return
          </CharString>
          <CharString index="2">
            hlineto
            -104 callsubr
            return
          </CharString>
          <CharString index="3">
            -26 -6 -67 callsubr
            6 6 26 vhcurveto
            return
          </CharString>
          <CharString index="4">
            -329 -106 callgsubr
            return
          </CharString>
          <CharString index="5">
            6 -88 callgsubr
            return
          </CharString>
          <CharString index="6">
            175 -105 callgsubr
            return
          </CharString>
          <CharString index="7">
            268 callgsubr
            -160 vlineto
            -9 callsubr
            137 -138 -398 hlineto
            121 callgsubr
            return
          </CharString>
          <CharString index="8">
            rmoveto
            -98 callgsubr
            return
          </CharString>
          <CharString index="9">
            vlineto
            -89 callgsubr
            return
          </CharString>
          <CharString index="10">
            -53 -25 -79 callsubr
            return
          </CharString>
          <CharString index="11">
            -93 callsubr
            201 hlineto
            return
          </CharString>
          <CharString index="12">
            -88 callsubr
            208 59 -116 -102 callgsubr
            return
          </CharString>
          <CharString index="13">
            -102 callgsubr
            186 -44 callsubr
            return
          </CharString>
          <CharString index="14">
            vlineto
            53 25 -84 callgsubr
            return
          </CharString>
          <CharString index="15">
            6 26 hvcurveto
            return
          </CharString>
          <CharString index="16">
            26 6 -6 -26 hvcurveto
            -131 vlineto
            -25 -6 -7 -26 vhcurveto
            -285 -212 256 callsubr
          </CharString>
          <CharString index="17">
            26 6 -65 callgsubr
            return
          </CharString>
          <CharString index="18">
            -26 -6 -92 callsubr
            return
          </CharString>
          <CharString index="19">
            vlineto
            -99 callgsubr
            return
          </CharString>
          <CharString index="20">
            -81 callsubr
            -41 callsubr
            return
          </CharString>
          <CharString index="21">
            hlineto
            -26 -5 -67 callsubr
            5 6 26 vhcurveto
            return
          </CharString>
          <CharString index="22">
            hlineto
            -89 callsubr
            return
          </CharString>
          <CharString index="23">
            103 callgsubr
            4 callgsubr
            4 callsubr
            return
          </CharString>
          <CharString index="24">
            -26 -8 -8 -26 vhcurveto
            -215 102 callgsubr
            return
          </CharString>
          <CharString index="25">
            -136 -75 callgsubr
            return
          </CharString>
          <CharString index="26">
            -92 callgsubr
            137 return
          </CharString>
          <CharString index="27">
            1 6 0 6 7 vvcurveto
            174 vlineto
            16 -4 10 -8 5 vhcurveto
            return
          </CharString>
          <CharString index="28">
            -25 -53 hvcurveto
            return
          </CharString>
          <CharString index="29">
            -44 callgsubr
            -113 -88 callsubr
            return
          </CharString>
          <CharString index="30">
            -59 461 -238 hlineto
            18 callgsubr
            -385 143 callgsubr
            return
          </CharString>
          <CharString index="31">
            vlineto
            -56 callsubr
            return
          </CharString>
          <CharString index="32">
            25 53 hvcurveto
            return
          </CharString>
          <CharString index="33">
            563 137 vlineto
            endchar
          </CharString>
          <CharString index="34">
            hlineto
            -82 callgsubr
            return
          </CharString>
          <CharString index="35">
            34 1 17 18 37 vvcurveto
            129 -61 callgsubr
            -391 69 callgsubr
            206 -85 callgsubr
            -119 vlineto
            -77 callgsubr
            -148 -59 148 hlineto
            26 8 -8 -26 hvcurveto
            -116 -76 callgsubr
            -206 144 callsubr
            -138 -97 -88 callsubr
            391 -67 callgsubr
            140 189 -296 147 callsubr
            return
          </CharString>
          <CharString index="36">
            -251 -61 callsubr
            return
          </CharString>
          <CharString index="37">
            vlineto
            -50 callsubr
            return
          </CharString>
          <CharString index="38">
            537 -137 -365 91 callgsubr
            425 -67 callgsubr
            407 return
          </CharString>
          <CharString index="39">
            14 callgsubr
            137 vlineto
            endchar
          </CharString>
          <CharString index="40">
            -92 callsubr
            225 vlineto
            26 return
          </CharString>
          <CharString index="41">
            -99 callgsubr
            384 -67 callgsubr
            return
          </CharString>
          <CharString index="42">
            -99 callgsubr
            380 -86 callgsubr
            119 -138 -106 vlineto
            -26 -6 203 callsubr
            return
          </CharString>
          <CharString index="43">
            -53 -24 -79 callsubr
            return
          </CharString>
          <CharString index="44">
            vlineto
            -52 callgsubr
            return
          </CharString>
          <CharString index="45">
            138 -47 callsubr
          </CharString>
          <CharString index="46">
            -76 callsubr
            270 return
          </CharString>
          <CharString index="47">
            -85 callsubr
            140 return
          </CharString>
          <CharString index="48">
            -267 -240 4 hlineto
            -72 callsubr
            return
          </CharString>
          <CharString index="49">
            -14 -11 -3 -6 -7 hvcurveto
            87 return
          </CharString>
          <CharString index="50">
            42 callsubr
            282 -198 hlineto
            -25 callgsubr
            return
          </CharString>
          <CharString index="51">
            -53 25 -29 callgsubr
            return
          </CharString>
          <CharString index="52">
            vlineto
            -26 -5 -71 callgsubr
            return
          </CharString>
          <CharString index="53">
            -72 callgsubr
            -156 -88 callsubr
            177 59 -97 -85 callsubr
            130 -107 callsubr
            187 -44 callsubr
            -303 19 callgsubr
            -529 94 callsubr
            157 -31 callsubr
            138 59 -138 94 callsubr
            160 -31 callsubr
            return
          </CharString>
          <CharString index="54">
            hlineto
            -36 callgsubr
            return
          </CharString>
          <CharString index="55">
            -86 callgsubr
            251 -42 callgsubr
            return
          </CharString>
          <CharString index="56">
            -40 callsubr
            -46 callsubr
          </CharString>
          <CharString index="57">
            -53 26 37 callsubr
            return
          </CharString>
          <CharString index="58">
            -106 callgsubr
            220 43 callgsubr
          </CharString>
          <CharString index="59">
            95 callgsubr
            -144 -58 callgsubr
            51 -126 194 callgsubr
            302 -39 callgsubr
            113 -43 callgsubr
            -224 -58 callgsubr
            94 -39 callsubr
            142 -53 callsubr
            -51 126 61 -43 callgsubr
            -301 1 callgsubr
            -115 -70 callsubr
            225 -53 callsubr
            return
          </CharString>
          <CharString index="60">
            563 -34 callgsubr
          </CharString>
          <CharString index="61">
            -50 callgsubr
            -87 callgsubr
            185 -51 callgsubr
            -169 -28 callsubr
          </CharString>
          <CharString index="62">
            -563 276 callsubr
            return
          </CharString>
          <CharString index="63">
            hlineto
            -29 callsubr
            return
          </CharString>
          <CharString index="64">
            -348 30 callsubr
            return
          </CharString>
          <CharString index="65">
            vlineto
            21 -8 -18 10 -30 hhcurveto
            -226 hlineto
            -53 -26 -26 -53 hvcurveto
            -327 99 callsubr
            return
          </CharString>
          <CharString index="66">
            392 -26 callsubr
            return
          </CharString>
          <CharString index="67">
            -1 -6 0 -6 -7 vvcurveto
            return
          </CharString>
          <CharString index="68">
            vlineto
            -27 callgsubr
            return
          </CharString>
          <CharString index="69">
            34 callgsubr
            108 -137 hlineto
            return
          </CharString>
          <CharString index="70">
            rmoveto
            32 callgsubr
            -286 90 5 callgsubr
            335 312 callgsubr
            endchar
          </CharString>
          <CharString index="71">
            -26 -5 -5 -26 vhcurveto
            return
          </CharString>
          <CharString index="72">
            vlineto
            -21 callgsubr
            return
          </CharString>
          <CharString index="73">
            53 26 26 53 hvcurveto
            return
          </CharString>
          <CharString index="74">
            33 callgsubr
            -105 118 118 -61 callgsubr
            -353 hlineto
            -53 return
          </CharString>
          <CharString index="75">
            5 -88 callgsubr
            return
          </CharString>
          <CharString index="76">
            vlineto
            26 -32 callsubr
            return
          </CharString>
          <CharString index="77">
            -89 callgsubr
            481 59 -387 -9 callgsubr
            return
          </CharString>
          <CharString index="78">
            26 7 -65 callgsubr
            return
          </CharString>
          <CharString index="79">
            -59 261 hlineto
            53 25 25 53 hvcurveto
            251 120 callgsubr
          </CharString>
          <CharString index="80">
            -6 -68 callgsubr
            return
          </CharString>
          <CharString index="81">
            vlineto
            -8 callsubr
            return
          </CharString>
          <CharString index="82">
            -89 callsubr
            133 303 vlineto
            207 callgsubr
            165 -61 callgsubr
            -360 -72 callgsubr
            return
          </CharString>
          <CharString index="83">
            -25 callsubr
            -104 136 70 callsubr
            return
          </CharString>
          <CharString index="84">
            -98 callsubr
            -23 callgsubr
            return
          </CharString>
          <CharString index="85">
            -90 callsubr
            -131 -35 callsubr
            return
          </CharString>
          <CharString index="86">
            rmoveto
            -26 -7 25 callsubr
            394 267 vlineto
            return
          </CharString>
          <CharString index="87">
            rmoveto
            334 callsubr
            130 -356 rlineto
            67 336 callgsubr
            -176 hlineto
            -239 -622 rlineto
            131 hlineto
            45 123 rlineto
            302 hlineto
            endchar
          </CharString>
          <CharString index="88">
            226 callsubr
            351 -242 rlineto
            -2 -5 -7 -1 -9 hhcurveto
            return
          </CharString>
          <CharString index="89">
            -98 callsubr
            476 59 -384 94 callsubr
            142 -31 callsubr
            223 hlineto
            26 5 -7 -25 hvcurveto
            -91 132 101 vlineto
            55 -28 26 -55 vhcurveto
            -303 94 callsubr
            38 -31 callsubr
            endchar
          </CharString>
          <CharString index="90">
            vlineto
            -36 callsubr
            return
          </CharString>
          <CharString index="91">
            -59 120 -407 hlineto
            -99 callgsubr
            return
          </CharString>
          <CharString index="92">
            rmoveto
            -134 -543 hlineto
            80 callsubr
            -133 56 callsubr
            return
          </CharString>
          <CharString index="93">
            rmoveto
            -393 174 callgsubr
            -166 287 callsubr
            226 hlineto
            30 18 10 21 8 hvcurveto
            -31 129 271 callsubr
          </CharString>
          <CharString index="94">
            346 callgsubr
            563 136 vlineto
            endchar
          </CharString>
          <CharString index="95">
            22 callgsubr
            154 -107 callsubr
            208 59 -288 257 callsubr
            return
          </CharString>
          <CharString index="96">
            232 callgsubr
            190 -426 3 callsubr
          </CharString>
          <CharString index="97">
            17 callsubr
            -6 return
          </CharString>
          <CharString index="98">
            -26 -5 23 callsubr
            return
          </CharString>
          <CharString index="99">
            26 8 8 26 vhcurveto
            return
          </CharString>
          <CharString index="100">
            -8 -26 vhcurveto
            return
          </CharString>
          <CharString index="101">
            hlineto
            53 25 10 callsubr
          </CharString>
          <CharString index="102">
            hlineto
            -89 callgsubr
            453 59 -359 -9 callgsubr
            146 262 41 callsubr
            249 539 -344 204 callsubr
            6 26 hvcurveto
            154 173 callsubr
            204 59 -284 hlineto
            -64 callsubr
            -180 vlineto
            -49 21 -29 48 vhcurveto
            190 hlineto
            -140 -182 rlineto
            143 hlineto
            148 199 rlineto
            -139 193 callsubr
          </CharString>
          <CharString index="103">
            vlineto
            -65 callsubr
            174 323 vlineto
            53 24 25 158 callsubr
          </CharString>
          <CharString index="104">
            -316 hlineto
            -63 callgsubr
            return
          </CharString>
          <CharString index="105">
            -36 callsubr
            -195 -58 callgsubr
            442 -39 callsubr
            195 -53 callsubr
            return
          </CharString>
          <CharString index="106">
            622 rmoveto
            return
          </CharString>
          <CharString index="107">
            rmoveto
            -26 -7 121 callsubr
            7 -6 -26 hvcurveto
            -364 -225 rmoveto
            -26 -6 121 callsubr
            6 -6 -26 hvcurveto
            return
          </CharString>
          <CharString index="108">
            -36 -15 -15 -30 -3 hvcurveto
            -4 hlineto
            7 callgsubr
            -294 -72 callgsubr
            86 callgsubr
            294 hlineto
            41 17 13 32 4 hvcurveto
            4 hlineto
            -31 4 14 -14 36 hhcurveto
            302 -52 callsubr
            return
          </CharString>
          <CharString index="109">
            5 5 26 vhcurveto
            return
          </CharString>
          <CharString index="110">
            138 -74 callsubr
          </CharString>
          <CharString index="111">
            376 86 callsubr
            return
          </CharString>
          <CharString index="112">
            -59 538 -78 -347 150 callgsubr
            317 hlineto
            26 7 -7 -26 hvcurveto
            -70 19 callgsubr
            -259 238 callgsubr
            352 -67 callgsubr
            97 250 callgsubr
            return
          </CharString>
          <CharString index="113">
            267 callgsubr
            34 -129 -485 129 362 1 31 315 callsubr
            -395 129 189 callgsubr
          </CharString>
          <CharString index="114">
            -46 callgsubr
            -609 -92 215 callgsubr
            232 -92 vlineto
            -612 -334 -10 callgsubr
            1448 426 rmoveto
            59 -1943 218 callsubr
            198 -256 hlineto
            -99 callgsubr
            299 hlineto
            14 11 3 6 7 hvcurveto
            -87 -91 callgsubr
          </CharString>
          <CharString index="115">
            -40 callsubr
            27 callsubr
          </CharString>
          <CharString index="116">
            vlineto
            26 6 33 callgsubr
            return
          </CharString>
          <CharString index="117">
            -75 callsubr
            270 190 -30 callgsubr
          </CharString>
          <CharString index="118">
            -71 callgsubr
            189 604 -280 3 callsubr
          </CharString>
          <CharString index="119">
            80 callgsubr
            68 callsubr
          </CharString>
          <CharString index="120">
            60 callgsubr
            112 vlineto
            25 206 callgsubr
            return
          </CharString>
          <CharString index="121">
            13 18 -5 24 hhcurveto
            return
          </CharString>
          <CharString index="122">
            85 callsubr
            -162 160 callsubr
            -136 -76 callsubr
            154 return
          </CharString>
          <CharString index="123">
            hlineto
            26 callsubr
            return
          </CharString>
          <CharString index="124">
            -77 callgsubr
            -215 hlineto
            -26 return
          </CharString>
          <CharString index="125">
            rmoveto
            43 hlineto
            92 135 rlineto
            55 -135 vlineto
            return
          </CharString>
          <CharString index="126">
            0 -17 callgsubr
            return
          </CharString>
          <CharString index="127">
            154 callgsubr
            103 return
          </CharString>
          <CharString index="128">
            216 callgsubr
            -28 vhcurveto
            -431 144 callsubr
            234 41 callsubr
            77 -42 callgsubr
            return
          </CharString>
          <CharString index="129">
            rmoveto
            116 -43 callgsubr
            -371 1 callgsubr
            -464 -70 callsubr
            371 214 callsubr
            -273 -59 139 -171 -17 callsubr
            -198 -58 callgsubr
            442 -39 callsubr
            197 -53 callsubr
            -105 vlineto
            endchar
          </CharString>
          <CharString index="130">
            -68 callgsubr
            -233 return
          </CharString>
          <CharString index="131">
            -142 141 rlineto
            54 -57 -47 8 -76 hhcurveto
            -92 -61 22 hlineto
            44 42 -5 -44 47 hvcurveto
            131 -128 -270 -247 rlineto
            169 hlineto
            229 213 rlineto
            return
          </CharString>
          <CharString index="132">
            -68 callgsubr
            78 callsubr
            return
          </CharString>
          <CharString index="133">
            -26 -5 5 26 hvcurveto
            305 -39 callsubr
            return
          </CharString>
          <CharString index="134">
            -251 -11 callsubr
          </CharString>
          <CharString index="135">
            rmoveto
            340 callsubr
            -169 hlineto
            -26 -7 5 26 hvcurveto
            137 130 callgsubr
            169 -85 callgsubr
            return
          </CharString>
          <CharString index="136">
            -6 -6 352 callsubr
            309 callgsubr
            return
          </CharString>
          <CharString index="137">
            hlineto
            203 callgsubr
            return
          </CharString>
          <CharString index="138">
            -426 147 callsubr
            return
          </CharString>
          <CharString index="139">
            268 callgsubr
            -160 vlineto
            -9 callsubr
            146 return
          </CharString>
          <CharString index="140">
            208 -54 callgsubr
            357 275 vlineto
            return
          </CharString>
          <CharString index="141">
            vlineto
            -64 callsubr
            -64 -98 callsubr
            323 -85 callgsubr
            -64 -76 callgsubr
            -254 53 -142 -190 142 78 346 -86 callgsubr
            90 -42 callgsubr
            -323 -85 callsubr
            38 -107 callsubr
            return
          </CharString>
          <CharString index="142">
            38 callsubr
            -59 return
          </CharString>
          <CharString index="143">
            -98 callsubr
            387 -86 callgsubr
            return
          </CharString>
          <CharString index="144">
            -26 53 vhcurveto
            return
          </CharString>
          <CharString index="145">
            246 callsubr
            -495 44 callgsubr
            return
          </CharString>
          <CharString index="146">
            -99 callgsubr
            39 callgsubr
          </CharString>
          <CharString index="147">
            vlineto
            28 callgsubr
            return
          </CharString>
          <CharString index="148">
            vlineto
            53 25 24 53 hvcurveto
            return
          </CharString>
          <CharString index="149">
            -89 callsubr
            166 -107 callsubr
            return
          </CharString>
          <CharString index="150">
            162 callgsubr
            -284 -85 callsubr
            40 -107 callsubr
            return
          </CharString>
          <CharString index="151">
            -77 callgsubr
            -186 95 callsubr
            220 -107 callsubr
            170 59 -262 -72 callgsubr
            return
          </CharString>
          <CharString index="152">
            103 -96 rlineto
            135 hlineto
            -172 149 rlineto
            -133 hlineto
            return
          </CharString>
          <CharString index="153">
            rmoveto
            -29 -10 -9 return
          </CharString>
          <CharString index="154">
            34 callgsubr
            137 59 -774 -59 500 117 callgsubr
            -123 259 callsubr
            78 -137 -91 30 callgsubr
            return
          </CharString>
          <CharString index="155">
            rmoveto
            242 -53 callsubr
            -219 -17 callsubr
            -242 hlineto
            276 -282 rmoveto
            139 hlineto
            -141 223 rlineto
            53 214 callsubr
            -43 callgsubr
            -461 -622 134 223 140 hlineto
            endchar
          </CharString>
          <CharString index="156">
            -85 callsubr
            99 10 callgsubr
            6 26 hvcurveto
            140 vlineto
            26 6 -33 callsubr
            -25 -25 -53 hvcurveto
            -59 return
          </CharString>
          <CharString index="157">
            176 callgsubr
            10 10 hvcurveto
            -10 119 callsubr
          </CharString>
          <CharString index="158">
            -105 callgsubr
            286 callsubr
            return
          </CharString>
          <CharString index="159">
            hlineto
            -83 callgsubr
            -210 266 callsubr
            return
          </CharString>
          <CharString index="160">
            -72 callgsubr
            -81 138 68 -107 callsubr
            173 71 callsubr
            return
          </CharString>
          <CharString index="161">
            117 callsubr
            -59 325 callgsubr
            return
          </CharString>
          <CharString index="162">
            -59 533 -120 -361 91 callgsubr
            418 -67 callgsubr
            return
          </CharString>
          <CharString index="163">
            -532 -17 callsubr
            -208 -58 callgsubr
            return
          </CharString>
          <CharString index="164">
            34 callgsubr
            170 59 -816 333 callsubr
            258 callsubr
            115 hlineto
            -96 229 callgsubr
            65 136 64 -136 rlineto
            134 hlineto
            -94 164 rlineto
            101 hlineto
            207 callgsubr
            132 -61 callgsubr
            -222 -59 138 -85 callgsubr
            -106 228 callsubr
            -246 236 callsubr
          </CharString>
          <CharString index="165">
            rmoveto
            216 callsubr
            -242 95 callsubr
            298 66 callsubr
            -324 vlineto
            -53 25 -24 53 vhcurveto
            98 hlineto
            -90 273 callsubr
            67 -143 rlineto
            134 hlineto
            -90 164 rlineto
            98 hlineto
            207 callgsubr
            324 279 callsubr
          </CharString>
          <CharString index="166">
            339 rmoveto
            -203 hlineto
            -80 callsubr
            214 hlineto
            -340 222 callsubr
            return
          </CharString>
          <CharString index="167">
            277 59 -277 215 318 59 -456 -622 470 59 return
          </CharString>
          <CharString index="168">
            382 79 callgsubr
            return
          </CharString>
          <CharString index="169">
            221 callsubr
            25 25 53 hvcurveto
            270 195 -30 callgsubr
          </CharString>
          <CharString index="170">
            643 907 393 rmoveto
            25 5 8 26 vhcurveto
            164 hlineto
            26 5 -8 -25 hvcurveto
            -101 vlineto
            -25 -8 -8 -19 vhcurveto
            -171 hlineto
            -20 -8 10 23 hvcurveto
            -255 271 rmoveto
            717 59 -1389 -59 535 -304 -58 hlineto
            -142 157 rlineto
            61 -56 -46 8 -81 hhcurveto
            -91 -61 23 hlineto
            49 42 -7 -48 45 hvcurveto
            122 -134 -263 -235 rlineto
            167 hlineto
            222 199 rlineto
            67 -199 137 199 return
          </CharString>
          <CharString index="171">
            8 6 4 11 18 vvcurveto
            147 74 callsubr
            return
          </CharString>
          <CharString index="172">
            79 callsubr
            631 468 rmoveto
            -1133 55 callsubr
            390 197 -339 vlineto
            -329 -299 rlineto
            163 hlineto
            175 175 rlineto
            0 -5 -58 -47 vvcurveto
            -37 129 302 callsubr
          </CharString>
          <CharString index="173">
            313 callsubr
            254 169 rmoveto
            59 -814 -59 337 274 callsubr
            return
          </CharString>
          <CharString index="174">
            rmoveto
            -26 -5 -6 -26 vhcurveto
            -205 hlineto
            305 callgsubr
            hlineto
            597 196 rmoveto
            -1094 333 callgsubr
            270 callsubr
            253 193 171 callsubr
            -5 -58 249 callsubr
            137 vlineto
            endchar
          </CharString>
          <CharString index="175">
            75 callsubr
            137 vlineto
            endchar
          </CharString>
          <CharString index="176">
            26 vhcurveto
            195 -85 callgsubr
            return
          </CharString>
          <CharString index="177">
            91 21 callgsubr
            return
          </CharString>
          <CharString index="178">
            160 callgsubr
            -82 callsubr
            return
          </CharString>
          <CharString index="179">
            hlineto
            17 12 4 9 182 callsubr
            return
          </CharString>
          <CharString index="180">
            107 callsubr
            563 137 vlineto
            endchar
          </CharString>
          <CharString index="181">
            vlineto
            53 -24 24 -53 vhcurveto
            -345 hlineto
            98 callgsubr
            return
          </CharString>
          <CharString index="182">
            530 72 callsubr
            return
          </CharString>
          <CharString index="183">
            175 hlineto
            -49 callgsubr
            -379 -72 callgsubr
            -59 -648 -63 callsubr
            327 105 -107 callsubr
            195 hlineto
            26 5 138 callgsubr
            382 -67 callgsubr
            154 return
          </CharString>
          <CharString index="184">
            -325 -3 callsubr
            return
          </CharString>
          <CharString index="185">
            -202 -85 callsubr
            return
          </CharString>
          <CharString index="186">
            96 callgsubr
            166 173 callsubr
            281 -198 hlineto
            -26 -5 -68 callgsubr
            return
          </CharString>
          <CharString index="187">
            -50 callsubr
            379 -39 callgsubr
            543 return
          </CharString>
          <CharString index="188">
            -59 1214 hlineto
            32 callsubr
            -809 hlineto
            -52 callgsubr
            212 59 callgsubr
            return
          </CharString>
          <CharString index="189">
            vlineto
            -40 callsubr
            -59 25 callgsubr
            -154 -18 callsubr
          </CharString>
          <CharString index="190">
            137 -47 callsubr
          </CharString>
          <CharString index="191">
            -26 -6 6 25 hvcurveto
            97 10 callgsubr
            7 26 hvcurveto
            128 9 callsubr
            -99 118 112 258 callgsubr
            -147 226 callgsubr
            -17 -37 vvcurveto
            -112 -2 callgsubr
            return
          </CharString>
          <CharString index="192">
            26 6 6 69 callsubr
            return
          </CharString>
          <CharString index="193">
            -86 callgsubr
            270 return
          </CharString>
          <CharString index="194">
            vlineto
            -40 callsubr
            -78 30 callgsubr
            -64 callgsubr
          </CharString>
          <CharString index="195">
            rmoveto
            -26 -6 -6 -26 vhcurveto
            -242 hlineto
            -26 -6 6 26 hvcurveto
            303 66 callsubr
            141 callsubr
          </CharString>
          <CharString index="196">
            rmoveto
            -1111 -59 842 -78 -327 -299 hlineto
            -26 -6 -6 308 callgsubr
            6 26 hvcurveto
            299 -134 -312 vlineto
            248 callsubr
            25 25 53 hvcurveto
            253 193 171 callsubr
            -6 352 callgsubr
            130 302 callsubr
          </CharString>
          <CharString index="197">
            -44 callsubr
            -50 vlineto
            -26 -7 129 callgsubr
          </CharString>
          <CharString index="198">
            -59 481 -85 callgsubr
            -166 -35 callsubr
            -223 143 343 callgsubr
            373 59 -281 -85 callsubr
            183 315 vlineto
            -56 callgsubr
            70 49 vlineto
            40 40 -7 -42 43 hvcurveto
            117 -118 -255 -228 rlineto
            160 hlineto
            216 193 rlineto
            return
          </CharString>
          <CharString index="199">
            rmoveto
            260 callgsubr
            108 59 -645 51 callgsubr
            -199 hlineto
            12 callgsubr
            404 hlineto
            -167 -156 rlineto
            166 hlineto
            176 175 rlineto
            46 40 hlineto
            endchar
          </CharString>
          <CharString index="200">
            -59 94 224 callgsubr
            -317 -98 callsubr
            208 274 callgsubr
            return
          </CharString>
          <CharString index="201">
            hlineto
            133 callgsubr
            return
          </CharString>
          <CharString index="202">
            hlineto
            -26 -6 6 25 hvcurveto
            return
          </CharString>
          <CharString index="203">
            vlineto
            54 callgsubr
            return
          </CharString>
          <CharString index="204">
            46 callsubr
            -29 vhcurveto
            -435 94 callsubr
            140 238 -96 callsubr
            142 callgsubr
            return
          </CharString>
          <CharString index="205">
            -5 -4 -10 -16 vvcurveto
            return
          </CharString>
          <CharString index="206">
            -70 callsubr
            226 hlineto
            101 callgsubr
            return
          </CharString>
          <CharString index="207">
            -25 callgsubr
            -172 return
          </CharString>
          <CharString index="208">
            -50 callgsubr
            378 -13 callsubr
          </CharString>
          <CharString index="209">
            -98 callsubr
            698 -86 callgsubr
            329 vlineto
            return
          </CharString>
          <CharString index="210">
            -264 hlineto
            -36 -14 -16 -29 -4 hvcurveto
            -4 hlineto
            7 callgsubr
            return
          </CharString>
          <CharString index="211">
            304 -92 callgsubr
            return
          </CharString>
          <CharString index="212">
            31 callsubr
            137 return
          </CharString>
          <CharString index="213">
            -14 712 -1 callsubr
            -732 -59 732 hlineto
            -471 -409 rmoveto
            305 callgsubr
            -240 hlineto
            -26 -5 -68 callgsubr
            165 272 rmoveto
            282 59 -741 270 callsubr
            return
          </CharString>
          <CharString index="214">
            vlineto
            109 callsubr
            return
          </CharString>
          <CharString index="215">
            vlineto
            -33 174 callsubr
            return
          </CharString>
          <CharString index="216">
            -99 callgsubr
            183 hlineto
            -144 -179 341 callsubr
            144 190 rlineto
            -126 137 return
          </CharString>
          <CharString index="217">
            131 callsubr
            -7 6 26 hvcurveto
            return
          </CharString>
          <CharString index="218">
            426 34 callgsubr
            return
          </CharString>
          <CharString index="219">
            235 137 rmoveto
            -57 callsubr
            -505 426 rmoveto
            219 callgsubr
            59 -772 vlineto
            return
          </CharString>
          <CharString index="220">
            -58 callgsubr
            96 -134 -107 -70 callsubr
            return
          </CharString>
          <CharString index="221">
            122 callsubr
            -185 -105 callsubr
            169 59 -261 -72 callgsubr
            86 callgsubr
            279 278 callgsubr
            hlineto
            26 return
          </CharString>
          <CharString index="222">
            hlineto
            20 -53 23 -60 17 -49 22 -43 rlinecurve
            -6 hlineto
            -27 48 -32 44 -55 63 -43 50 rcurveline
            -139 hlineto
            138 -131 42 -40 28 -22 15 -12 rlinecurve
            return
          </CharString>
          <CharString index="223">
            53 25 206 callsubr
            return
          </CharString>
          <CharString index="224">
            346 callsubr
            -393 return
          </CharString>
          <CharString index="225">
            186 callgsubr
            177 59 -177 46 callgsubr
            49 -107 callsubr
            282 137 190 hlineto
            142 callgsubr
            -1035 -59 434 -78 -237 -72 callgsubr
            -65 vlineto
            -37 17 -17 34 -2 vhcurveto
            -4 vlineto
            -34 -1 -17 -17 -37 vvcurveto
            return
          </CharString>
          <CharString index="226">
            14 callsubr
            -81 callgsubr
          </CharString>
          <CharString index="227">
            -76 callgsubr
            -212 -85 callsubr
            100 -138 -113 110 callgsubr
            return
          </CharString>
          <CharString index="228">
            -68 callgsubr
            -179 -105 callsubr
            179 hlineto
            26 return
          </CharString>
          <CharString index="229">
            -392 vlineto
            -77 callgsubr
            return
          </CharString>
          <CharString index="230">
            hlineto
            17 11 3 10 7 hvcurveto
            return
          </CharString>
          <CharString index="231">
            hlineto
            109 callsubr
            563 137 vlineto
            endchar
          </CharString>
          <CharString index="232">
            -7 -68 callgsubr
            return
          </CharString>
          <CharString index="233">
            rmoveto
            294 59 -428 -299 hlineto
            -26 -6 -6 308 callgsubr
            6 26 hvcurveto
            299 -134 -312 vlineto
            248 callsubr
            25 25 53 hvcurveto
            270 90 rmoveto
            288 callsubr
            271 246 rlineto
            endchar
          </CharString>
          <CharString index="234">
            169 rmoveto
            -26 -5 -106 callsubr
            236 hlineto
            599 196 rmoveto
            return
          </CharString>
          <CharString index="235">
            hlineto
            25 17 5 11 11 hvcurveto
            -11 13 18 -5 24 201 callgsubr
          </CharString>
          <CharString index="236">
            hlineto
            -91 273 callsubr
            68 -143 rlineto
            134 hlineto
            -90 164 rlineto
            return
          </CharString>
          <CharString index="237">
            327 callsubr
            -326 vlineto
            -53 -24 -25 -53 hvcurveto
            -251 -23 callsubr
            return
          </CharString>
          <CharString index="238">
            -42 callgsubr
            -297 hlineto
            -26 return
          </CharString>
          <CharString index="239">
            -76 callgsubr
            318 callgsubr
            return
          </CharString>
          <CharString index="240">
            rmoveto
            47 -23 23 -47 vhcurveto
            -198 hlineto
            -46 -23 -23 -47 hvcurveto
            -37 vlineto
            -48 23 -21 46 vhcurveto
            198 hlineto
            47 23 21 48 hvcurveto
            -86 10 rmoveto
            -24 -4 -5 -25 vhcurveto
            -107 hlineto
            -26 -3 5 24 hvcurveto
            17 vlineto
            24 3 5 26 vhcurveto
            107 hlineto
            25 4 -5 -24 hvcurveto
            return
          </CharString>
          <CharString index="241">
            1 callgsubr
            -180 -70 callsubr
            return
          </CharString>
          <CharString index="242">
            rmoveto
            -139 146 rlineto
            -143 hlineto
            167 -146 rlineto
            return
          </CharString>
          <CharString index="243">
            563 207 callsubr
          </CharString>
          <CharString index="244">
            rmoveto
            -25 callgsubr
            -242 hlineto
            -26 -6 6 26 hvcurveto
            303 313 callsubr
            return
          </CharString>
          <CharString index="245">
            -107 callsubr
            237 hlineto
            return
          </CharString>
          <CharString index="246">
            rmoveto
            117 -39 callsubr
            return
          </CharString>
          <CharString index="247">
            -395 rmoveto
            -25 -6 204 callgsubr
            111 186 callgsubr
            238 hlineto
            -717 -141 rmoveto
            -26 -5 -106 callsubr
            236 hlineto
            return
          </CharString>
          <CharString index="248">
            4 callgsubr
            419 -67 callgsubr
            329 279 callsubr
          </CharString>
          <CharString index="249">
            498 168 13 callsubr
            return
          </CharString>
          <CharString index="250">
            175 hlineto
            -37 callgsubr
            -379 -72 callgsubr
            return
          </CharString>
          <CharString index="251">
            -85 callsubr
            84 return
          </CharString>
          <CharString index="252">
            rmoveto
            133 hlineto
            172 149 rlineto
            -135 hlineto
            -103 -96 -104 96 rlineto
            -135 hlineto
            return
          </CharString>
          <CharString index="253">
            103 callsubr
            -316 hlineto
            return
          </CharString>
          <CharString index="254">
            138 563 return
          </CharString>
          <CharString index="255">
            rmoveto
            -9 callsubr
            146 -328 hlineto
            -58 callsubr
            593 vlineto
            268 callgsubr
            return
          </CharString>
          <CharString index="256">
            -392 227 callgsubr
            26 hvcurveto
            225 346 callsubr
            return
          </CharString>
          <CharString index="257">
            -58 callgsubr
            129 return
          </CharString>
          <CharString index="258" raw="1">
            fb0f0771 0b  
          </CharString>
          <CharString index="259">
            -98 callsubr
            187 callsubr
            return
          </CharString>
          <CharString index="260">
            -107 callsubr
            endchar
          </CharString>
          <CharString index="261">
            326 callgsubr
            -204 220 callsubr
            return
          </CharString>
          <CharString index="262">
            -386 vlineto
            -77 callgsubr
            -186 95 callsubr
            220 -107 callsubr
            170 59 return
          </CharString>
          <CharString index="263">
            -47 158 callgsubr
          </CharString>
          <CharString index="264">
            18 callsubr
            endchar
          </CharString>
          <CharString index="265">
            53 hvcurveto
            201 -61 callgsubr
            552 hmoveto
            -274 -622 111 callgsubr
          </CharString>
          <CharString index="266">
            439 -181 34 callgsubr
            109 -137 hlineto
            return
          </CharString>
          <CharString index="267">
            -322 vlineto
            98 callgsubr
            return
          </CharString>
          <CharString index="268" raw="1">
            f76107a5 0b  
          </CharString>
          <CharString index="269">
            485 rmoveto
            204 -485 rlineto
            48 hlineto
            -19 -40 rlineto
            -30 -14 -22 -12 -42 hhcurveto
            -66 -59 109 hlineto
            94 28 38 65 26 hvcurveto
            222 523 rlineto
            -130 hlineto
            -152 -399 -153 399 rlineto
            return
          </CharString>
          <CharString index="270">
            96 callgsubr
            140 246 -93 callsubr
            return
          </CharString>
          <CharString index="271">
            102 callgsubr
            -291 -72 callgsubr
            return
          </CharString>
          <CharString index="272">
            247 callsubr
            -26 6 callgsubr
            return
          </CharString>
          <CharString index="273">
            152 callsubr
            24 25 53 hvcurveto
            return
          </CharString>
          <CharString index="274">
            -59 495 -386 vlineto
            44 callsubr
            -246 -2 callgsubr
            return
          </CharString>
          <CharString index="275">
            hlineto
            -99 callgsubr
            209 callsubr
          </CharString>
          <CharString index="276" raw="1">
            063c1d0b   
          </CharString>
          <CharString index="277">
            vlineto
            23 callgsubr
            return
          </CharString>
          <CharString index="278">
            -221 99 callgsubr
            return
          </CharString>
          <CharString index="279">
            hlineto
            -30 callsubr
            return
          </CharString>
          <CharString index="280">
            vlineto
            25 6 7 26 vhcurveto
            return
          </CharString>
          <CharString index="281">
            -1 -17 -17 -38 vvcurveto
            return
          </CharString>
          <CharString index="282">
            26 253 callgsubr
            return
          </CharString>
          <CharString index="283">
            -59 493 hlineto
            268 callgsubr
            -158 vlineto
            -25 -5 -68 callgsubr
            -235 134 343 callgsubr
            383 59 -291 -85 callsubr
            192 return
          </CharString>
          <CharString index="284">
            rmoveto
            -143 hlineto
            167 -146 rlineto
            115 hlineto
            endchar
          </CharString>
          <CharString index="285">
            -86 callgsubr
            147 vlineto
            38 -17 16 -33 2 vhcurveto
            4 vlineto
            33 1 17 18 37 vvcurveto
            return
          </CharString>
          <CharString index="286">
            -134 rmoveto
            -26 148 callgsubr
            -109 -58 179 hlineto
            54 32 27 59 hvcurveto
            92 -122 vlineto
            return
          </CharString>
          <CharString index="287">
            -104 callgsubr
            179 -44 callsubr
            return
          </CharString>
          <CharString index="288">
            203 callsubr
            174 return
          </CharString>
          <CharString index="289">
            7 hvcurveto
            -91 137 563 return
          </CharString>
          <CharString index="290">
            390 -1 callsubr
            -136 return
          </CharString>
          <CharString index="291">
            rmoveto
            334 callsubr
            130 -356 rlineto
            66 336 callgsubr
            -175 hlineto
            -240 -622 rlineto
            132 hlineto
            45 123 rlineto
            301 hlineto
            endchar
          </CharString>
          <CharString index="292">
            59 -408 -59 270 vlineto
            -284 -367 rlineto
            -59 426 59 return
          </CharString>
          <CharString index="293">
            563 rmoveto
            344 -206 hlineto
            -83 7 -70 0 vhcurveto
            -313 -67 96 callgsubr
            193 vlineto
            71 -8 61 0 vhcurveto
            340 -347 rlineto
            -7 -5 -9 -3 -15 hhcurveto
            return
          </CharString>
          <CharString index="294">
            382 hlineto
            53 return
          </CharString>
          <CharString index="295">
            46 callsubr
            -29 vhcurveto
            -420 -60 callsubr
            224 -96 callsubr
            142 callgsubr
            return
          </CharString>
          <CharString index="296">
            -49 -22 -23 -48 hvcurveto
            -56 vlineto
            -33 14 -15 30 -1 vhcurveto
            -4 vlineto
            -30 -2 -14 -14 -33 vvcurveto
            -56 vlineto
            -49 22 -22 49 vhcurveto
            529 59 -454 hlineto
            -23 -5 6 23 hvcurveto
            return
          </CharString>
          <CharString index="297">
            -133 hlineto
            -185 -333 -194 333 rlineto
            -134 hlineto
            return
          </CharString>
          <CharString index="298">
            277 callgsubr
            87 vlineto
            24 8 9 26 vhcurveto
            return
          </CharString>
          <CharString index="299">
            -402 217 hmoveto
            485 -129 -485 vlineto
            return
          </CharString>
          <CharString index="300">
            136 -74 callsubr
          </CharString>
          <CharString index="301">
            323 vlineto
            53 24 return
          </CharString>
          <CharString index="302">
            59 callgsubr
            189 return
          </CharString>
          <CharString index="303">
            137 378 -26 callsubr
            return
          </CharString>
          <CharString index="304">
            rmoveto
            -58 callsubr
            return
          </CharString>
          <CharString index="305">
            -4 0 -717 hlineto
            -52 callgsubr
            185 vlineto
            -40 callsubr
            return
          </CharString>
          <CharString index="306">
            -99 callgsubr
            368 -62 callgsubr
            return
          </CharString>
          <CharString index="307">
            40 13 5 26 vhcurveto
            49 320 callgsubr
            1 -7 vhcurveto
            -3 7 -17 40 -32 43 -54 73 rcurveline
            -134 hlineto
            81 -104 return
          </CharString>
          <CharString index="308">
            -88 callsubr
            379 -86 callgsubr
            return
          </CharString>
          <CharString index="309">
            -426 137 563 return
          </CharString>
          <CharString index="310">
            -6 222 callgsubr
            return
          </CharString>
          <CharString index="311">
            vlineto
            -28 -10 -10 -28 vhcurveto
            -215 hlineto
            -26 -6 return
          </CharString>
          <CharString index="312">
            -58 -2 callgsubr
            return
          </CharString>
          <CharString index="313">
            24 53 hvcurveto
            252 return
          </CharString>
          <CharString index="314">
            136 hlineto
            endchar
          </CharString>
          <CharString index="315">
            rmoveto
            59 -113 96 -129 -96 -78 -59 78 -347 -70 callsubr
            162 63 -81 -58 callgsubr
            332 vlineto
            endchar
          </CharString>
          <CharString index="316">
            530 294 callsubr
          </CharString>
          <CharString index="317">
            -51 callgsubr
            -170 -59 262 -52 callsubr
            return
          </CharString>
          <CharString index="318">
            235 232 callsubr
            return
          </CharString>
          <CharString index="319">
            -383 94 -1 callsubr
            -622 138 622 vlineto
            return
          </CharString>
          <CharString index="320">
            326 callsubr
            -800 -59 525 -78 -322 return
          </CharString>
          <CharString index="321">
            -39 callgsubr
            241 return
          </CharString>
          <CharString index="322">
            7 0 6 -1 6 vhcurveto
            return
          </CharString>
          <CharString index="323">
            -25 -27 callsubr
            return
          </CharString>
          <CharString index="324">
            -62 callgsubr
            310 -16 callgsubr
          </CharString>
          <CharString index="325">
            -59 120 -407 vlineto
            109 callgsubr
            return
          </CharString>
          <CharString index="326">
            91 137 callsubr
            return
          </CharString>
          <CharString index="327">
            -105 callsubr
            236 hlineto
            return
          </CharString>
          <CharString index="328">
            -62 callgsubr
            187 callsubr
            return
          </CharString>
          <CharString index="329">
            -192 rmoveto
            -9 callsubr
            return
          </CharString>
          <CharString index="330">
            90 95 callgsubr
            return
          </CharString>
          <CharString index="331">
            -706 -189 -1 callsubr
            -27 48 -32 44 -55 63 -43 50 rcurveline
            -139 hlineto
            138 -131 rlineto
            70 -66 31 -19 0 vvcurveto
            return
          </CharString>
          <CharString index="332">
            rmoveto
            -559 205 callgsubr
            hlineto
            endchar
          </CharString>
          <CharString index="333">
            22 callgsubr
            107 124 callgsubr
            return
          </CharString>
          <CharString index="334">
            -156 hlineto
            -99 callgsubr
            524 hlineto
            16 return
          </CharString>
          <CharString index="335">
            vlineto
            216 callsubr
            return
          </CharString>
          <CharString index="336">
            -48 rmoveto
            -129 -485 129 346 hlineto
            48 22 27 47 vhcurveto
            110 65 -87 hlineto
            -52 -29 -26 -35 -11 hvcurveto
            endchar
          </CharString>
          <CharString index="337">
            vlineto
            -330 -280 rlineto
            166 hlineto
            173 288 callgsubr
          </CharString>
          <CharString index="338">
            hlineto
            268 callgsubr
            -68 138 11 callgsubr
            return
          </CharString>
          <CharString index="339">
            137 rmoveto
            42 callsubr
            return
          </CharString>
          <CharString index="340">
            -64 callsubr
            -59 25 callgsubr
            -144 -98 callsubr
            return
          </CharString>
          <CharString index="341">
            232 154 79 callsubr
            return
          </CharString>
          <CharString index="342">
            -65 callgsubr
            -205 137 205 -107 callsubr
            219 43 callgsubr
          </CharString>
          <CharString index="343">
            95 callsubr
            298 153 callsubr
          </CharString>
          <CharString index="344">
            563 -134 -622 442 59 vlineto
            endchar
          </CharString>
          <CharString index="345">
            -649 hlineto
            -64 callsubr
            return
          </CharString>
          <CharString index="346">
            -124 -88 callsubr
            return
          </CharString>
          <CharString index="347">
            22 callgsubr
            109 vlineto
            return
          </CharString>
          <CharString index="348">
            -291 hlineto
            319 callsubr
            192 hlineto
            -125 -156 rlineto
            146 hlineto
            return
          </CharString>
          <CharString index="349">
            327 callsubr
            -315 vlineto
            -64 callsubr
            -78 30 callgsubr
            312 140 callgsubr
            return
          </CharString>
          <CharString index="350">
            261 callsubr
            2 -7 vhcurveto
            -4 7 -16 40 -33 43 -54 73 rcurveline
            -134 hlineto
            82 -104 return
          </CharString>
          <CharString index="351">
            vlineto
            50 -22 27 -56 vhcurveto
            -336 hlineto
            -55 -23 -27 -50 hvcurveto
            -91 vlineto
            -29 4 -19 12 -10 vhcurveto
            -136 hlineto
            endchar
          </CharString>
          <CharString index="352">
            -88 callsubr
            530 hlineto
            17 12 4 9 7 hvcurveto
            return
          </CharString>
          <CharString index="353">
            rmoveto
            118 callgsubr
            return
          </CharString>
          <CharString index="354">
            -85 callgsubr
            -129 vlineto
            return
          </CharString>
          <CharString index="355">
            -99 callgsubr
            374 hlineto
            53 return
          </CharString>
          <CharString index="356">
            -47 vvcurveto
            -24 129 605 return
          </CharString>
          <CharString index="357">
            17 -17 33 -1 vhcurveto
            return
          </CharString>
          <CharString index="358">
            166 rmoveto
            -123 vlineto
            -77 callgsubr
            -226 hlineto
            -26 -6 7 24 hvcurveto
            94 -107 callsubr
            return
          </CharString>
          <CharString index="359">
            -78 164 callgsubr
            return
          </CharString>
          <CharString index="360">
            -31 callgsubr
            636 hmoveto
            59 return
          </CharString>
          <CharString index="361">
            -77 callgsubr
            -275 -85 callsubr
            225 vlineto
            25 5 6 24 1 vhcurveto
            142 59 return
          </CharString>
          <CharString index="362">
            96 callgsubr
            188 vlineto
            71 318 callsubr
            336 -343 rlineto
            -5 -5 -8 -2 -13 hhcurveto
            return
          </CharString>
          <CharString index="363">
            hlineto
            -99 callgsubr
            -81 callgsubr
          </CharString>
          <CharString index="364">
            hlineto
            -53 -24 -24 -53 hvcurveto
            -180 -98 callsubr
            return
          </CharString>
          <CharString index="365">
            41 callgsubr
            -324 -2 callgsubr
            return
          </CharString>
          <CharString index="366">
            309 callsubr
            -202 262 callgsubr
            return
          </CharString>
          <CharString index="367">
            315 callsubr
            -176 90 267 callgsubr
            return
          </CharString>
          <CharString index="368">
            -56 -27 -27 -55 hvcurveto
            -13 vlineto
            -36 9 -30 return
          </CharString>
          <CharString index="369">
            vlineto
            53 -25 24 -53 vhcurveto
            return
          </CharString>
          <CharString index="370">
            72 callgsubr
            -134 return
          </CharString>
          <CharString index="371">
            rmoveto
            -149 hlineto
            -226 -240 226 -245 rlineto
            149 hlineto
            -231 245 rlineto
            endchar
          </CharString>
          <CharString index="372">
            -42 callgsubr
            -311 305 callsubr
          </CharString>
          <CharString index="373">
            hlineto
            228 callgsubr
            return
          </CharString>
          <CharString index="374">
            rmoveto
            -403 -58 403 hlineto
            return
          </CharString>
          <CharString index="375">
            -38 16 -16 34 -2 vhcurveto
            -4 vlineto
            -34 -1 -16 -17 -37 vvcurveto
            -121 30 callgsubr
            return
          </CharString>
          <CharString index="376">
            -236 rmoveto
            48 -19 27 -55 vhcurveto
            -92 -58 20 hlineto
            26 4 -9 -24 hvcurveto
            -245 116 71 return
          </CharString>
          <CharString index="377">
            hlineto
            -64 callsubr
            -234 166 callsubr
            return
          </CharString>
          <CharString index="378">
            485 vlineto
            endchar
          </CharString>
          <CharString index="379">
            23 5 6 23 vhcurveto
            33 59 -33 hlineto
            -23 -5 6 23 hvcurveto
            30 vlineto
            23 5 6 23 vhcurveto
            return
          </CharString>
          <CharString index="380">
            229 callgsubr
            69 143 return
          </CharString>
          <CharString index="381">
            -78 -139 41 callgsubr
            return
          </CharString>
          <CharString index="382">
            hlineto
            28 callgsubr
            return
          </CharString>
          <CharString index="383">
            147 callsubr
            136 return
          </CharString>
          <CharString index="384">
            485 rmoveto
            103 callsubr
            return
          </CharString>
          <CharString index="385">
            -59 532 -78 -332 41 callgsubr
            -156 -2 callgsubr
            return
          </CharString>
          <CharString index="386">
            -61 callgsubr
            -142 78 hlineto
            endchar
          </CharString>
          <CharString index="387">
            -59 120 -390 hlineto
            -99 callgsubr
            373 -67 callgsubr
            return
          </CharString>
          <CharString index="388">
            14 callsubr
            75 callsubr
            return
          </CharString>
          <CharString index="389">
            516 294 callsubr
          </CharString>
          <CharString index="390">
            485 rmoveto
            238 callsubr
            return
          </CharString>
          <CharString index="391">
            137 136 callsubr
          </CharString>
          <CharString index="392">
            rmoveto
            -14 -11 -3 -6 -7 hvcurveto
            return
          </CharString>
          <CharString index="393">
            273 59 rmoveto
            return
          </CharString>
          <CharString index="394">
            -58 callgsubr
            395 -129 -406 -70 callsubr
            return
          </CharString>
          <CharString index="395">
            -407 -338 rlineto
            166 hlineto
            return
          </CharString>
          <CharString index="396">
            216 callgsubr
            -29 vhcurveto
            return
          </CharString>
          <CharString index="397">
            138 266 -138 return
          </CharString>
          <CharString index="398">
            -78 -649 41 callgsubr
            -195 vlineto
            -24 -8 -10 -26 vhcurveto
            return
          </CharString>
          <CharString index="399">
            46 callgsubr
            110 138 callsubr
            return
          </CharString>
          <CharString index="400">
            -65 hlineto
            246 callgsubr
            return
          </CharString>
          <CharString index="401">
            72 callsubr
            136 vlineto
            endchar
          </CharString>
          <CharString index="402">
            -20 -21 -42 hvcurveto
            -216 vlineto
            -43 20 -20 return
          </CharString>
          <CharString index="403">
            hlineto
            88 -104 51 -59 42 -35 26 -18 rlinecurve
            return
          </CharString>
          <CharString index="404">
            -89 9 -46 0 vhcurveto
            return
          </CharString>
          <CharString index="405">
            hlineto
            26 5 321 callgsubr
            return
          </CharString>
          <CharString index="406">
            -649 -72 callgsubr
            -237 40 callsubr
            return
          </CharString>
          <CharString index="407">
            530 rmoveto
            322 callgsubr
            return
          </CharString>
          <CharString index="408">
            rmoveto
            -99 156 99 vlineto
            121 hmoveto
            -99 155 99 vlineto
            endchar
          </CharString>
          <CharString index="409">
            605 -34 callgsubr
          </CharString>
          <CharString index="410">
            75 callgsubr
            89 return
          </CharString>
          <CharString index="411">
            224 callgsubr
            -239 -88 callsubr
            return
          </CharString>
          <CharString index="412">
            -9 callgsubr
            51 130 callgsubr
            endchar
          </CharString>
          <CharString index="413">
            -98 callsubr
            298 hlineto
            return
          </CharString>
          <CharString index="414">
            -95 vlineto
            -77 callgsubr
            return
          </CharString>
          <CharString index="415">
            rmoveto
            -144 -105 144 hlineto
            return
          </CharString>
          <CharString index="416">
            vlineto
            340 callsubr
            return
          </CharString>
          <CharString index="417">
            -161 rlineto
            103 hlineto
            return
          </CharString>
          <CharString index="418">
            -37 callgsubr
            -379 -72 callgsubr
            -59 return
          </CharString>
          <CharString index="419">
            hlineto
            268 callgsubr
            -131 vlineto
            -25 -5 -7 -26 vhcurveto
            return
          </CharString>
          <CharString index="420">
            -107 callsubr
            242 -85 callgsubr
            return
          </CharString>
          <CharString index="421">
            -70 callsubr
            358 -39 callgsubr
            return
          </CharString>
          <CharString index="422">
            vlineto
            24 11 9 24 vhcurveto
            166 -53 callsubr
            return
          </CharString>
          <CharString index="423">
            41 callgsubr
            -195 40 callsubr
            return
          </CharString>
          <CharString index="424">
            hvcurveto
            140 vlineto
            return
          </CharString>
          <CharString index="425">
            -6 59 0 vhcurveto
            return
          </CharString>
          <CharString index="426">
            -97 callsubr
            -238 -2 callgsubr
            return
          </CharString>
          <CharString index="427">
            -34 callsubr
            464 -43 callgsubr
            return
          </CharString>
          <CharString index="428">
            -14 -16 -29 -4 hvcurveto
            -5 hlineto
            32 -3 -18 13 -40 hhcurveto
            return
          </CharString>
          <CharString index="429">
            426 334 callgsubr
            return
          </CharString>
          <CharString index="430">
            238 vlineto
            -56 callgsubr
            return
          </CharString>
          <CharString index="431">
            -322 hlineto
            -64 callsubr
            return
          </CharString>
          <CharString index="432">
            426 rmoveto
            326 callsubr
            return
          </CharString>
          <CharString index="433">
            137 138 59 return
          </CharString>
          <CharString index="434">
            -59 508 -78 return
          </CharString>
          <CharString index="435">
            -79 callsubr
            -237 -1 40 callsubr
            return
          </CharString>
          <CharString index="436">
            289 callsubr
            -435 hlineto
            -26 return
          </CharString>
          <CharString index="437">
            -348 hlineto
            -99 callgsubr
            384 hlineto
            53 return
          </CharString>
          <CharString index="438">
            -34 callsubr
            61 return
          </CharString>
          <CharString index="439">
            rmoveto
            -26 -5 5 26 hvcurveto
            return
          </CharString>
          <CharString index="440">
            327 callsubr
            -310 return
          </CharString>
          <CharString index="441">
            129 356 return
          </CharString>
          <CharString index="442">
            59 -387 -9 callgsubr
            143 return
          </CharString>
          <CharString index="443">
            -93 callgsubr
            -138 138 return
          </CharString>
          <CharString index="444">
            192 182 -192 hlineto
            return
          </CharString>
          <CharString index="445">
            669 -129 -669 vlineto
            return
          </CharString>
          <CharString index="446">
            261 hlineto
            53 25 return
          </CharString>
          <CharString index="447">
            -26 -6 -5 -26 vhcurveto
            return
          </CharString>
          <CharString index="448">
            rlineto
            148 hlineto
            return
          </CharString>
          <CharString index="449">
            563 rmoveto
            59 return
          </CharString>
          <CharString index="450" raw="1">
            f790f71d 15a11d0b  
          </CharString>
          <CharString index="451">
            -53 callsubr
            -395 130 return
          </CharString>
          <CharString index="452">
            -59 133 hlineto
            -8 -5 -3 -10 -16 vvcurveto
            return
          </CharString>
          <CharString index="453">
            144 callgsubr
            141 59 return
          </CharString>
          <CharString index="454">
            158 -1 callsubr
            -32 callgsubr
            return
          </CharString>
          <CharString index="455">
            52 266 rmoveto
            559 89 -559 hlineto
            return
          </CharString>
          <CharString index="456">
            -26 vhcurveto
            -209 95 callsubr
            return
          </CharString>
          <CharString index="457">
            246 749 rmoveto
            -37 callgsubr
            return
          </CharString>
          <CharString index="458" raw="1">
            f81b06c0 0b  
          </CharString>
          <CharString index="459">
            -26 vhcurveto
            -169 return
          </CharString>
        <CharString name=".notdef">
          -218 endchar
        </CharString>
        <CharString name="A">
          1 223 182 -20 callsubr
        </CharString>
        <CharString name="AE">
          333 299 198 rmoveto
          230 341 rlineto
          -341 vlineto
          134 -139 rmoveto
          230 278 59 -278 215 312 59 -524 vlineto
          -428 -622 rlineto
          142 hlineto
          94 139 rlineto
          270 -139 459 59 hlineto
          endchar
        </CharString>
        <CharString name="Aacute">
          0 586 816 29 callgsubr
          -197 -488 -20 callsubr
        </CharString>
        <CharString name="Abreve">
          0 493 669 67 callgsubr
          11 -487 -20 callsubr
        </CharString>
        <CharString name="Acircumflex">
          0 352 765 rmoveto
          45 callsubr
          -172 -149 rlineto
          135 hlineto
          -26 -487 -20 callsubr
        </CharString>
        <CharString name="Adieresis">
          0 570 768 221 callgsubr
          -70 -487 184 callsubr
        </CharString>
        <CharString name="Agrave">
          0 399 670 135 callsubr
          -61 -488 184 callsubr
        </CharString>
        <CharString name="Amacron">
          0 557 728 267 callsubr
          -335 -488 -20 callsubr
        </CharString>
        <CharString name="Aogonek">
          0 222 182 rmoveto
          334 callsubr
          130 -356 rlineto
          53 -365 rmoveto
          303 callsubr
          5 hlineto
          -240 622 rlineto
          -176 hlineto
          -239 -622 rlineto
          131 hlineto
          45 123 rlineto
          302 hlineto
          45 -123 rlineto
          -35 -65 vlineto
          169 callgsubr
        </CharString>
        <CharString name="Aring">
          0 270 766 52 callgsubr
          -31 -488 -20 callsubr
        </CharString>
        <CharString name="Atilde">
          0 239 725 rmoveto
          14 5 8 13 vhcurveto
          -12 callgsubr
          vlineto
          -17 -487 -20 callsubr
        </CharString>
        <CharString name="B">
          -1 89 -1 callsubr
          -622 457 vlineto
          -34 callsubr
          174 vlineto
          37 -17 17 -33 4 vhcurveto
          33 2 17 21 36 vvcurveto
          173 -43 callgsubr
          -51 -535 rmoveto
          -22 125 callsubr
          -239 223 241 -53 callsubr
          121 vmoveto
          -36 callsubr
          -241 222 241 -53 callsubr
          endchar
        </CharString>
        <CharString name="C">
          -42 608 407 -13 callgsubr
        </CharString>
        <CharString name="CR">
          -706 endchar
        </CharString>
        <CharString name="Cacute">
          -47 564 816 29 callgsubr
          209 -263 -13 callgsubr
        </CharString>
        <CharString name="Ccaron">
          -47 410 669 -14 callgsubr
          329 -262 -13 callgsubr
        </CharString>
        <CharString name="Ccedilla">
          -47 274 179 callsubr
          332 456 -13 callgsubr
        </CharString>
        <CharString name="D">
          1 493 223 callsubr
          -239 504 239 -53 callsubr
          -404 90 rmoveto
          -622 459 vlineto
          159 callgsubr
        </CharString>
        <CharString name="Dcaron">
          3 414 669 -14 callgsubr
          215 -579 95 callgsubr
          -239 504 239 -53 callsubr
          -404 90 rmoveto
          -622 459 vlineto
          159 callgsubr
        </CharString>
        <CharString name="Dcroat">
          50 539 223 callsubr
          -237 224 168 61 -168 219 237 -53 callsubr
          -403 90 rmoveto
          -278 -59 -61 59 -283 458 vlineto
          159 callgsubr
        </CharString>
        <CharString name="E">
          -104 227 59 rmoveto
          230 60 callsubr
          vlineto
          endchar
        </CharString>
        <CharString name="Eacute">
          -106 552 815 29 callgsubr
          -159 -610 rmoveto
          230 60 callsubr
          vlineto
          endchar
        </CharString>
        <CharString name="Ecaron">
          -106 398 669 -14 callgsubr
          -39 -380 rmoveto
          60 callsubr
          -332 hlineto
          endchar
        </CharString>
        <CharString name="Ecircumflex">
          -106 322 765 rmoveto
          45 callsubr
          -172 -149 rlineto
          135 hlineto
          8 -380 rmoveto
          60 callsubr
          -332 hlineto
          endchar
        </CharString>
        <CharString name="Edieresis">
          -86 533 768 221 callgsubr
          -30 -610 rmoveto
          230 60 callsubr
          vlineto
          endchar
        </CharString>
        <CharString name="Edotaccent">
          -106 406 775 308 callsubr
          -180 -611 rmoveto
          230 60 callsubr
          vlineto
          endchar
        </CharString>
        <CharString name="Egrave">
          -106 381 669 135 callsubr
          -40 -610 rmoveto
          230 60 callsubr
          vlineto
          endchar
        </CharString>
        <CharString name="Emacron">
          -106 521 727 267 callsubr
          -295 -610 rmoveto
          230 60 callsubr
          vlineto
          endchar
        </CharString>
        <CharString name="Eogonek">
          -106 417 291 callgsubr
          148 -332 230 277 59 -277 215 318 59 -456 -622 343 122 callgsubr
          hlineto
          endchar
        </CharString>
        <CharString name="Eth">
          15 508 223 callsubr
          -237 224 169 61 -169 219 237 -53 callsubr
          -402 90 rmoveto
          -278 -59 -61 59 -283 458 vlineto
          159 callgsubr
        </CharString>
        <CharString name="Euro">
          -2 651 407 rmoveto
          136 -43 callgsubr
          -370 1 callgsubr
          -138 -90 -59 90 -69 -90 -59 90 -139 -70 callsubr
          370 -39 callgsubr
          136 -135 -125 -17 callsubr
          -196 -58 callgsubr
          128 155 59 -155 69 155 59 -155 127 -39 callsubr
          196 -53 callsubr
          -125 vlineto
          endchar
        </CharString>
        <CharString name="F">
          -131 546 342 callsubr
          -457 -622 138 265 280 59 -280 239 vlineto
          endchar
        </CharString>
        <CharString name="G">
          -26 609 427 22 callsubr
        </CharString>
        <CharString name="Gbreve">
          -30 479 669 67 callgsubr
          410 -242 22 callsubr
        </CharString>
        <CharString name="H">
          49 532 -1 callsubr
          -281 -309 281 -134 -622 134 282 309 -282 134 622 vlineto
          endchar
        </CharString>
        <CharString name="I">
          -374 97 -1 callsubr
          -622 138 622 vlineto
          endchar
        </CharString>
        <CharString name="Iacute">
          212 callsubr
          -120 47 83 callgsubr
          endchar
        </CharString>
        <CharString name="Icircumflex">
          212 callsubr
          -302 48 rmoveto
          135 hlineto
          104 96 45 callsubr
          endchar
        </CharString>
        <CharString name="Idieresis">
          -383 95 -1 callsubr
          -622 137 622 vlineto
          -284 146 rmoveto
          -99 155 99 vlineto
          122 hmoveto
          -99 155 99 vlineto
          endchar
        </CharString>
        <CharString name="Idotaccent">
          -399 88 523 rmoveto
          -523 136 523 vlineto
          -141 152 rmoveto
          -105 144 105 vlineto
          endchar
        </CharString>
        <CharString name="Igrave">
          212 callsubr
          -158 193 177 callsubr
        </CharString>
        <CharString name="Imacron">
          212 callsubr
          -265 47 285 callgsubr
          endchar
        </CharString>
        <CharString name="Iogonek">
          -383 88 291 callgsubr
          89 3 622 -138 -622 8 122 callgsubr
          hlineto
          endchar
        </CharString>
        <CharString name="J">
          -97 34 227 rmoveto
          -148 -70 callsubr
          337 -39 callgsubr
          543 -134 -532 -17 callsubr
          -164 -58 callgsubr
          137 vlineto
          endchar
        </CharString>
        <CharString name="K">
          -13 510 -1 callsubr
          272 callgsubr
          -573 hmoveto
          -622 131 622 vlineto
          endchar
        </CharString>
        <CharString name="L">
          -150 223 59 rmoveto
          237 callsubr
        </CharString>
        <CharString name="Lacute">
          -154 389 815 29 callgsubr
          -610 vmoveto
          237 callsubr
        </CharString>
        <CharString name="Lcaron">
          -154 222 670 -14 callgsubr
          133 -611 rmoveto
          237 callsubr
        </CharString>
        <CharString name="Lslash">
          -147 226 59 rmoveto
          230 vlineto
          162 54 rlineto
          63 vlineto
          -162 -54 rlineto
          270 -134 -315 vlineto
          -123 -41 rlineto
          -63 vlineto
          123 41 rlineto
          -244 442 59 vlineto
          endchar
        </CharString>
        <CharString name="M">
          181 491 135 rmoveto
          188 348 rlineto
          -483 119 622 -143 vlineto
          -215 -397 -207 397 rlineto
          -144 -622 119 483 hlineto
          183 -348 rlineto
          endchar
        </CharString>
        <CharString name="N">
          24 518 137 callgsubr
          endchar
        </CharString>
        <CharString name="NULL">
          -706 endchar
        </CharString>
        <CharString name="Nacute">
          22 316 668 83 callgsubr
          62 -192 225 callgsubr
        </CharString>
        <CharString name="Ncaron">
          22 304 669 145 callsubr
          385 -196 225 callgsubr
        </CharString>
        <CharString name="Ntilde">
          22 517 137 callgsubr
          -376 126 rmoveto
          -12 callgsubr
          56 vlineto
          14 5 8 13 vhcurveto
          endchar
        </CharString>
        <CharString name="O">
          -22 604 543 40 callgsubr
        </CharString>
        <CharString name="OE">
          264 475 90 rmoveto
          -26 -5 -5 308 callgsubr
          5 26 hvcurveto
          442 -39 callsubr
          199 -53 callsubr
          137 -473 rmoveto
          230 260 59 -260 215 295 59 -398 -14 vlineto
          9 -15 -20 5 -26 hhcurveto
          -289 1 callgsubr
          -464 -70 callsubr
          289 hlineto
          26 20 5 9 15 hvcurveto
          -14 410 59 vlineto
          endchar
        </CharString>
        <CharString name="Oacute">
          -23 294 669 83 callgsubr
          170 -272 40 callgsubr
        </CharString>
        <CharString name="Ocircumflex">
          -23 103 669 rmoveto
          135 hlineto
          104 96 45 callsubr
          328 -275 40 callgsubr
        </CharString>
        <CharString name="Odieresis">
          -30 603 543 -45 callgsubr
          -67 237 rmoveto
          -100 156 100 vlineto
          -432 hmoveto
          -100 155 100 vlineto
          endchar
        </CharString>
        <CharString name="Ograve">
          -23 603 543 -45 callgsubr
          -206 283 177 callsubr
        </CharString>
        <CharString name="Ohungarumlaut">
          -30 347 callsubr
          -464 -70 callsubr
          366 314 callgsubr
          -54 -90 rmoveto
          -442 vlineto
          -2 callsubr
          -133 298 rmoveto
          -146 310 callsubr
          174 161 rlineto
          95 hmoveto
          -148 -161 rlineto
          102 hlineto
          177 161 rlineto
          endchar
        </CharString>
        <CharString name="Omacron">
          -23 141 670 285 callgsubr
          462 -185 40 callgsubr
        </CharString>
        <CharString name="Oslash">
          3 493 88 rmoveto
          -26 -5 -5 -27 vhcurveto
          -215 hlineto
          -17 -8 2 8 -3 hvcurveto
          275 379 rlineto
          -278 88 276 callgsubr
          215 hlineto
          20 8 -3 -11 3 hvcurveto
          -277 -379 rlineto
          426 477 rmoveto
          -78 hlineto
          -20 -27 rlineto
          0 -377 vlineto
          -32 callgsubr
          -464 vlineto
          -25 6 -20 12 -13 vhcurveto
          -35 -48 rlineto
          79 hlineto
          20 27 rlineto
          374 -39 callgsubr
          464 vlineto
          25 -6 18 -11 14 vhcurveto
          endchar
        </CharString>
        <CharString name="Otilde">
          -23 603 543 -45 callgsubr
          -233 216 rmoveto
          -12 callgsubr
          56 vlineto
          14 5 8 13 vhcurveto
          endchar
        </CharString>
        <CharString name="P">
          -26 495 293 95 callgsubr
          -241 301 241 -53 callsubr
          -406 90 rmoveto
          -622 134 203 326 vlineto
          -34 callsubr
          261 -43 callgsubr
          endchar
        </CharString>
        <CharString name="Q">
          -50 198 532 276 callgsubr
          198 -53 callsubr
          -442 -17 callsubr
          -198 -58 callgsubr
          396 -187 rmoveto
          -119 97 rlineto
          35 314 callgsubr
          -365 1 callgsubr
          -464 -70 callsubr
          179 hlineto
          113 -97 rlineto
          endchar
        </CharString>
        <CharString name="R">
          -6 223 563 48 callsubr
        </CharString>
        <CharString name="Racute">
          -8 570 814 29 callgsubr
          -181 -105 48 callsubr
        </CharString>
        <CharString name="Rcaron">
          -8 419 667 -14 callgsubr
          -64 -104 48 callsubr
        </CharString>
        <CharString name="S">
          -45 457 90 62 callgsubr
        </CharString>
        <CharString name="Sacute">
          -46 284 668 83 callgsubr
          34 -724 62 callgsubr
        </CharString>
        <CharString name="Scaron">
          -46 268 667 145 callsubr
          361 -726 62 callgsubr
        </CharString>
        <CharString name="T">
          -130 568 622 225 callsubr
        </CharString>
        <CharString name="Tcaron">
          -129 356 667 -14 callgsubr
          346 -45 225 callsubr
        </CharString>
        <CharString name="Thorn">
          -26 486 192 95 callgsubr
          -232 300 232 -53 callsubr
          -263 90 rmoveto
          102 -133 -622 133 102 317 vlineto
          -34 callsubr
          260 -43 callgsubr
          endchar
        </CharString>
        <CharString name="U">
          -9 214 622 93 callgsubr
        </CharString>
        <CharString name="Uacute">
          -8 296 669 83 callgsubr
          -221 -193 93 callgsubr
        </CharString>
        <CharString name="Ucircumflex">
          -8 109 669 rmoveto
          135 hlineto
          104 96 45 callsubr
          -67 -196 93 callgsubr
        </CharString>
        <CharString name="Udieresis">
          -8 484 -1 callsubr
          56 callsubr
          532 -134 -543 vlineto
          80 callsubr
          vlineto
          -488 146 301 callsubr
        </CharString>
        <CharString name="Ugrave">
          -8 214 622 -15 callsubr
          65 725 177 callsubr
        </CharString>
        <CharString name="Uhungarumlaut">
          -17 214 622 -15 callsubr
          347 738 rmoveto
          -149 310 callsubr
          176 161 rlineto
          -356 hmoveto
          -146 310 callsubr
          173 161 rlineto
          endchar
        </CharString>
        <CharString name="Umacron">
          -8 214 622 -15 callsubr
          -68 579 285 callgsubr
          endchar
        </CharString>
        <CharString name="Uogonek">
          -8 484 -1 callsubr
          56 callsubr
          532 -134 -543 -70 callsubr
          124 122 callgsubr
          -163 hlineto
          303 callsubr
          128 -39 callgsubr
          543 vlineto
          endchar
        </CharString>
        <CharString name="Uring">
          -8 522 776 133 callsubr
          -222 -144 93 callgsubr
        </CharString>
        <CharString name="V">
          -3 539 -1 callsubr
          -189 -532 -186 532 rlineto
          -136 hlineto
          237 -622 rlineto
          172 hlineto
          237 622 rlineto
          endchar
        </CharString>
        <CharString name="W">
          374 920 -1 callsubr
          -161 -528 -151 528 rlineto
          -138 hlineto
          -151 -528 -154 528 rlineto
          -136 hlineto
          206 -622 rlineto
          167 hlineto
          137 479 138 -479 rlineto
          167 hlineto
          207 622 rlineto
          endchar
        </CharString>
        <CharString name="X">
          -19 417 321 rmoveto
          226 301 rlineto
          -141 hlineto
          -160 -223 -162 223 rlineto
          -146 hlineto
          233 -308 -242 -314 rlineto
          141 hlineto
          176 237 174 -237 rlineto
          145 hlineto
          endchar
        </CharString>
        <CharString name="Y">
          -46 653 622 287 callgsubr
          -420 rlineto
          -202 134 203 vlineto
          endchar
        </CharString>
        <CharString name="Yacute">
          -47 570 815 29 callgsubr
          249 281 callgsubr
          -420 rlineto
          -202 134 203 vlineto
          endchar
        </CharString>
        <CharString name="Ydieresis">
          -46 275 768 rmoveto
          -156 -99 156 hlineto
          276 99 rmoveto
          -155 -99 155 hlineto
          102 281 callgsubr
          -419 rlineto
          -203 134 204 vlineto
          endchar
        </CharString>
        <CharString name="Z">
          -70 585 622 158 callgsubr
        </CharString>
        <CharString name="Zacute">
          -71 559 815 29 callgsubr
          192 156 callsubr
        </CharString>
        <CharString name="Zcaron">
          -71 395 669 -14 callgsubr
          322 156 callsubr
        </CharString>
        <CharString name="Zdotaccent">
          -71 407 774 308 callsubr
          177 156 callsubr
        </CharString>
        <CharString name="a">
          -64 232 59 -78 callgsubr
        </CharString>
        <CharString name="aacute">
          -66 547 678 29 callgsubr
          -150 -473 -78 callgsubr
        </CharString>
        <CharString name="abreve">
          -66 459 532 67 callgsubr
          53 -473 -78 callgsubr
        </CharString>
        <CharString name="acircumflex">
          -66 319 628 rmoveto
          45 callsubr
          -172 -149 rlineto
          135 hlineto
          15 -473 -78 callgsubr
        </CharString>
        <CharString name="acute">
          -77 169 506 83 callgsubr
          endchar
        </CharString>
        <CharString name="adieresis">
          -66 539 631 rmoveto
          -155 -99 155 hlineto
          -276 99 rmoveto
          -156 -99 156 hlineto
          -33 -473 -78 callgsubr
        </CharString>
        <CharString name="ae">
          279 231 59 332 callsubr
          77 vlineto
          218 48 rlineto
          -126 vlineto
          -24 -10 -6 -23 vhcurveto
          366 367 rmoveto
          -36 callgsubr
          -117 -237 117 -39 callsubr
          325 -207 rmoveto
          2 8 239 callgsubr
          -273 hlineto
          -53 -17 -16 -21 -6 hvcurveto
          21 -7 -22 16 -55 hhcurveto
          -247 1 callgsubr
          -98 129 88 -39 callsubr
          154 hlineto
          23 10 -7 -24 hvcurveto
          -117 vlineto
          -347 -78 rlineto
          -122 -70 callsubr
          247 hlineto
          55 22 347 callgsubr
          271 -39 callgsubr
          65 -127 -54 -17 callsubr
          -173 150 callsubr
          vlineto
          endchar
        </CharString>
        <CharString name="agrave">
          -66 393 532 135 callsubr
          -48 -473 -78 callgsubr
        </CharString>
        <CharString name="amacron">
          -66 512 593 267 callsubr
          -282 -476 -78 callgsubr
        </CharString>
        <CharString name="ampersand">
          146 230 59 332 callsubr
          66 vlineto
          30 9 14 31 12 vhcurveto
          84 31 221 -184 rlineto
          -269 473 276 callgsubr
          171 -53 callsubr
          -92 vlineto
          -37 -17 -17 -46 -16 vhcurveto
          -84 -31 rlineto
          -60 50 -26 18 46 vvcurveto
          546 -498 rmoveto
          -64 54 rlineto
          26 13 14 26 38 vvcurveto
          145 -105 -141 vlineto
          -11 -1 -8 -3 -5 vhcurveto
          -258 216 106 39 rlineto
          67 25 33 32 72 vvcurveto
          93 -43 callgsubr
          -331 1 callgsubr
          -100 vlineto
          -60 39 -27 63 -52 vhcurveto
          5 -4 -98 -36 rlineto
          -64 -22 -22 -23 -56 vvcurveto
          -84 -70 callsubr
          466 hlineto
          54 -45 rlineto
          endchar
        </CharString>
        <CharString name="aogonek">
          -66 230 59 -40 callgsubr
          21 -242 rmoveto
          303 callsubr
          2 485 -129 -31 hlineto
          21 -8 -18 10 -30 hhcurveto
          -226 hlineto
          -53 -26 -26 -53 hvcurveto
          -327 99 callsubr
          -66 -65 vlineto
          169 callgsubr
        </CharString>
        <CharString name="approxequal">
          85 196 327 rmoveto
          24 3 13 7 33 113 63 -100 103 hhcurveto
          71 hlineto
          -23 -3 -14 -9 -32 -114 -44 101 -119 hhcurveto
          452 97 rmoveto
          -126 -60 hlineto
          -30 -13 -11 -36 vhcurveto
          -114 -44 101 -119 hhcurveto
          -121 hlineto
          -55 -23 -28 -49 hvcurveto
          -88 vlineto
          0 vlineto
          -9 vlineto
          -88 126 60 vlineto
          30 13 10 36 vhcurveto
          113 63 -101 103 hhcurveto
          119 hlineto
          54 24 29 49 hvcurveto
          88 vlineto
          0 vlineto
          8 vlineto
          endchar
        </CharString>
        <CharString name="aring">
          -66 235 629 52 callgsubr
          12 -474 -78 callgsubr
        </CharString>
        <CharString name="asciicircum">
          -56 248 668 rmoveto
          -205 -340 rlineto
          126 hlineto
          156 264 156 -264 rlineto
          126 hlineto
          -205 340 rlineto
          endchar
        </CharString>
        <CharString name="asciitilde">
          82 244 267 rmoveto
          113 62 -100 104 hhcurveto
          118 hlineto
          55 24 29 48 hvcurveto
          89 -127 -60 vlineto
          -30 -12 -11 -37 vhcurveto
          -113 -44 101 -119 hhcurveto
          -122 hlineto
          -54 -23 -28 -49 hvcurveto
          -89 126 60 vlineto
          31 12 9 37 vhcurveto
          endchar
        </CharString>
        <CharString name="asterisk">
          -205 202 655 rmoveto
          -64 vlineto
          -27 4 -24 6 -20 vhcurveto
          -18 13 -22 12 -26 9 -60 19 rcurveline
          -32 -97 61 -19 rlineto
          -8 23 25 -4 23 hhcurveto
          -17 -13 -20 -17 -16 -23 -37 -50 rcurveline
          82 -60 37 51 16 22 11 23 7 19 rlinecurve
          7 -20 11 -24 15 -22 38 -52 rcurveline
          82 60 -37 51 -16 22 -18 17 -16 13 rlinecurve
          21 25 3 8 26 hvcurveto
          61 20 -32 97 -60 -20 -25 -9 -22 -12 -18 -12 rlinecurve
          7 21 5 25 28 vvcurveto
          64 vlineto
          endchar
        </CharString>
        <CharString name="at">
          420 409 426 rmoveto
          -49 -23 -24 -48 hvcurveto
          -204 vlineto
          -48 23 -24 49 vhcurveto
          188 hlineto
          30 23 11 29 4 hvcurveto
          -59 327 vlineto
          48 24 24 48 hvcurveto
          360 vlineto
          48 -24 24 -48 vhcurveto
          -827 hlineto
          -49 -23 -24 -48 hvcurveto
          -490 vlineto
          -49 23 -23 49 vhcurveto
          717 60 -649 hlineto
          -24 -4 4 24 hvcurveto
          457 vlineto
          23 4 6 24 vhcurveto
          691 hlineto
          24 4 -6 -23 hvcurveto
          -328 vlineto
          -24 -4 -4 -24 vhcurveto
          -152 308 -112 -29 hlineto
          20 -8 -18 9 -26 hhcurveto
          -148 -87 rmoveto
          23 4 5 24 vhcurveto
          140 hlineto
          21 10 -8 -22 1 hvcurveto
          -170 vlineto
          -23 -1 -10 -7 -21 hhcurveto
          -140 hlineto
          -24 -4 4 24 hvcurveto
          endchar
        </CharString>
        <CharString name="atilde">
          -66 198 589 rmoveto
          14 5 8 13 vhcurveto
          -12 callgsubr
          vlineto
          32 -474 -78 callgsubr
        </CharString>
        <CharString name="b">
          -64 442 223 callsubr
          -166 hlineto
          -24 -11 9 24 hvcurveto
          25 -1 244 1 32 260 callsubr
          218 -129 -669 129 34 vlineto
          -23 8 18 -11 31 hhcurveto
          226 312 callgsubr
          endchar
        </CharString>
        <CharString name="backslash">
          -283 -82 699 rmoveto
          416 -835 rlineto
          120 hlineto
          -417 835 rlineto
          endchar
        </CharString>
        <CharString name="bar">
          -404 90 750 rmoveto
          -879 122 879 vlineto
          endchar
        </CharString>
        <CharString name="braceleft">
          -291 302 597 rmoveto
          41 8 23 39 vhcurveto
          98 59 -131 hlineto
          -102 -45 -36 -99 hvcurveto
          -203 vlineto
          -72 -26 -32 -64 vhcurveto
          -16 -59 16 hlineto
          64 26 -31 -71 hvcurveto
          -204 vlineto
          -99 45 -35 102 vhcurveto
          131 59 -98 hlineto
          -39 -8 23 41 hvcurveto
          223 vlineto
          69 -27 49 -57 5 vhcurveto
          57 5 27 48 70 vvcurveto
          endchar
        </CharString>
        <CharString name="braceright">
          -286 118 371 rmoveto
          -70 27 -48 57 -5 vhcurveto
          -57 -5 -27 -49 -69 vvcurveto
          -223 vlineto
          -41 -8 -23 -38 vhcurveto
          -99 -59 131 hlineto
          103 44 35 99 hvcurveto
          204 vlineto
          71 26 31 65 vhcurveto
          15 59 -15 hlineto
          -65 -26 32 72 hvcurveto
          203 vlineto
          99 -44 36 -103 vhcurveto
          -131 -59 99 hlineto
          38 8 -23 -41 hvcurveto
          endchar
        </CharString>
        <CharString name="bracketleft">
          -366 378 661 rmoveto
          59 -291 -940 291 59 -156 822 vlineto
          endchar
        </CharString>
        <CharString name="bracketright">
          -366 253 720 rmoveto
          -291 -59 156 -822 -156 -59 291 hlineto
          endchar
        </CharString>
        <CharString name="breve">
          -77 418 649 rmoveto
          -52 -17 callsubr
          -146 -58 callgsubr
          52 -116 194 callgsubr
          282 hlineto
          331 callsubr
          vlineto
          endchar
        </CharString>
        <CharString name="brokenbar">
          -418 83 250 rmoveto
          -379 122 379 vlineto
          121 vmoveto
          379 -122 -379 vlineto
          endchar
        </CharString>
        <CharString name="bullet">
          -240 233 450 rmoveto
          -85 -71 -59 -74 -72 71 -60 85 86 70 60 72 74 -70 59 -86 hvcurveto
          endchar
        </CharString>
        <CharString name="c">
          -102 551 320 -6 callgsubr
        </CharString>
        <CharString name="cacute">
          -106 543 678 29 callgsubr
          173 -212 -6 callgsubr
        </CharString>
        <CharString name="caron">
          -77 248 503 145 callsubr
          endchar
        </CharString>
        <CharString name="ccaron">
          -106 371 532 -14 callgsubr
          311 -212 -6 callgsubr
        </CharString>
        <CharString name="ccedilla">
          -106 248 179 callsubr
          301 369 -6 callgsubr
        </CharString>
        <CharString name="cedilla">
          -77 321 179 callsubr
          endchar
        </CharString>
        <CharString name="cent">
          -106 549 320 rmoveto
          86 -43 callgsubr
          -98 77 -129 -77 -95 hlineto
          -59 callgsubr
          95 -77 129 77 98 -39 callgsubr
          85 -127 -74 -17 callsubr
          -162 16 callsubr
          162 -53 callsubr
          -75 vlineto
          endchar
        </CharString>
        <CharString name="circumflex">
          -77 76 506 rmoveto
          135 hlineto
          104 96 45 callsubr
          endchar
        </CharString>
        <CharString name="colon">
          -446 59 366 rmoveto
          -247 142 247 vlineto
          endchar
        </CharString>
        <CharString name="comma">
          -455 59 -138 rmoveto
          47 hlineto
          95 198 rlineto
          72 -142 vlineto
          endchar
        </CharString>
        <CharString name="commaaccent">
          -77 247 -239 157 callsubr
        </CharString>
        <CharString name="copyright">
          351 980 341 rmoveto
          181 -67 100 -195 vhcurveto
          -380 hlineto
          -194 -67 -100 -181 hvcurveto
          -65 vlineto
          -182 67 -94 194 vhcurveto
          380 hlineto
          195 67 94 182 hvcurveto
          -624 -216 rmoveto
          -126 -40 78 131 hvcurveto
          78 vlineto
          131 40 86 126 vhcurveto
          345 hlineto
          126 40 -86 -131 hvcurveto
          -78 vlineto
          -131 -40 -78 -126 vhcurveto
          -79 180 95 callgsubr
          -124 -58 callgsubr
          151 -39 callsubr
          124 -53 callsubr
          -31 103 42 -43 callgsubr
          -234 1 callgsubr
          -173 -70 callsubr
          234 -39 callgsubr
          42 -103 vlineto
          endchar
        </CharString>
        <CharString name="currency">
          40 281 169 rmoveto
          -50 -16 6 51 hvcurveto
          137 vlineto
          51 16 14 50 vhcurveto
          189 hlineto
          49 17 -14 -51 hvcurveto
          -137 vlineto
          -51 -17 -6 -49 vhcurveto
          171 205 rmoveto
          20 -3 17 -5 15 vhcurveto
          50 49 -73 74 -65 -64 rlineto
          1 -11 -11 1 -13 hhcurveto
          -270 hlineto
          -14 -13 -1 -1 -11 hvcurveto
          -66 64 -73 -74 53 -52 rlineto
          -5 -14 -2 -17 -18 vvcurveto
          -152 vlineto
          -18 2 -17 5 -14 vhcurveto
          -53 -52 73 -73 66 64 rlineto
          -1 11 13 -1 14 hhcurveto
          270 hlineto
          13 11 1 1 11 hvcurveto
          65 -64 73 73 -50 49 rlineto
          5 15 3 17 20 vvcurveto
          endchar
        </CharString>
        <CharString name="d">
          -64 232 59 -22 callgsubr
          610 rmoveto
          -215 -42 callsubr
          -31 129 669 vlineto
          endchar
        </CharString>
        <CharString name="dagger">
          -98 540 464 rmoveto
          -168 158 -134 -158 -169 -59 169 -526 134 526 168 hlineto
          endchar
        </CharString>
        <CharString name="daggerdbl">
          -86 545 391 rmoveto
          59 -167 172 -134 -172 -170 -59 170 -308 -170 -59 170 -175 134 175 167 59 -167 308 vlineto
          endchar
        </CharString>
        <CharString name="dcaron">
          -49 431 455 rmoveto
          21 -9 -18 9 -29 hhcurveto
          -227 hlineto
          -59 callgsubr
          227 hlineto
          29 18 9 21 9 hvcurveto
          -30 129 669 -129 vlineto
          213 hmoveto
          344 callgsubr
          -530 -610 16 callgsubr
          167 hlineto
          24 11 -9 -24 hvcurveto
          -301 vlineto
          -24 -11 -9 -24 vhcurveto
          endchar
        </CharString>
        <CharString name="dcroat">
          -64 231 59 16 callgsubr
          167 hlineto
          24 11 -9 -24 hvcurveto
          -301 vlineto
          -24 -11 -9 -24 vhcurveto
          233 540 rmoveto
          -69 70 -129 -70 -215 -59 215 -86 hlineto
          21 -8 -18 10 -30 hhcurveto
          -227 hlineto
          -59 callgsubr
          227 hlineto
          101 callgsubr
          -31 129 540 69 vlineto
          endchar
        </CharString>
        <CharString name="degree">
          -121 526 544 rmoveto
          -37 callgsubr
          -311 hlineto
          -52 -26 -79 callsubr
          -141 vlineto
          -53 26 -25 52 vhcurveto
          311 -86 callgsubr
          -122 10 95 callgsubr
          -160 -58 callgsubr
          122 vlineto
          25 2 callsubr
          160 hlineto
          26 5 -5 -25 hvcurveto
          endchar
        </CharString>
        <CharString name="dieresis">
          -77 375 634 237 callgsubr
        </CharString>
        <CharString name="divide">
          -35 348 callsubr
          213 153 rmoveto
          -87 133 87 vlineto
          -133 -308 rmoveto
          -87 133 87 vlineto
          endchar
        </CharString>
        <CharString name="dollar">
          -46 231 343 332 callsubr
          158 -39 callsubr
          192 -53 callsubr
          -93 133 104 -43 callgsubr
          -117 92 -129 -92 -115 134 callsubr
          280 -53 callsubr
          -163 -17 callsubr
          -193 -58 callgsubr
          93 -133 -104 -70 callsubr
          113 -91 129 91 120 165 callgsubr
          endchar
        </CharString>
        <CharString name="dotaccent">
          -77 244 529 rmoveto
          144 105 -144 hlineto
          endchar
        </CharString>
        <CharString name="dotlessi">
          -402 87 485 rmoveto
          -485 130 271 callsubr
        </CharString>
        <CharString name="dvDDH_DDHA">
          83 658 111 callsubr
          151 59 -829 -59 540 -78 -341 vlineto
          -53 -24 -26 -53 hvcurveto
          -196 226 callgsubr
          -17 -37 vvcurveto
          -194 30 callgsubr
          432 147 callgsubr
          64 -42 callgsubr
          -134 -61 52 hlineto
          26 5 -7 -25 hvcurveto
          -36 vlineto
          -25 -5 -68 callgsubr
          -257 95 callsubr
          179 173 callsubr
          339 147 callgsubr
          63 -42 callgsubr
          -134 -61 52 hlineto
          268 callgsubr
          -35 vlineto
          -25 -5 -68 callgsubr
          -257 95 callsubr
          179 vlineto
          25 6 8 26 vhcurveto
          endchar
        </CharString>
        <CharString name="dvDD_GA">
          39 249 callgsubr
          139 59 -785 242 callsubr
          -121 -76 callgsubr
          -74 -56 hlineto
          -111 36 rlineto
          10 vlineto
          -62 21 -14 -17 rlineto
          -21 4 -20 5 10 vvcurveto
          10 vlineto
          -6 -66 -3 -7 vhcurveto
          -15 -61 rlineto
          -37 17 -35 37 -1 vhcurveto
          -1 -2 -3 -1 -3 hhcurveto
          -15 -12 -6 15 vhcurveto
          72 -43 46 17 rlineto
          35 11 16 33 1 hvcurveto
          85 hlineto
          13 7 44 17 1 hvcurveto
          34 -242 127 242 1 -86 callgsubr
          148 265 callsubr
        </CharString>
        <CharString name="dvMatraI.a33">
          -80 callgsubr
          1995 -74 callgsubr
          -2179 -97 callgsubr
        </CharString>
        <CharString name="dvMatraI.a34">
          -80 callgsubr
          2041 114 callgsubr
          -2225 -97 callgsubr
        </CharString>
        <CharString name="dvMatraI.a35">
          -80 callgsubr
          2089 298 callsubr
          -2272 -97 callgsubr
        </CharString>
        <CharString name="dvMatraI.a36">
          -80 callgsubr
          2134 -74 callgsubr
          -2318 -97 callgsubr
        </CharString>
        <CharString name="dvMatraI.a37">
          -80 callgsubr
          2181 -74 callgsubr
          -2365 -97 callgsubr
        </CharString>
        <CharString name="dvMatraI.a38">
          -80 callgsubr
          2227 -74 callgsubr
          -2411 -97 callgsubr
        </CharString>
        <CharString name="dvMatraI.a39">
          -80 callgsubr
          2274 -74 callgsubr
          -2458 -97 callgsubr
        </CharString>
        <CharString name="dvMatraI.a40">
          -80 callgsubr
          2320 -74 callgsubr
          -2504 -97 callgsubr
        </CharString>
        <CharString name="dvMatraI.a41">
          -80 callgsubr
          2367 -74 callgsubr
          -2551 -97 callgsubr
        </CharString>
        <CharString name="dvMatraI.a42">
          -80 callgsubr
          2414 -74 callgsubr
          -2598 -97 callgsubr
        </CharString>
        <CharString name="dvMatraI.a43">
          -80 callgsubr
          2460 -74 callgsubr
          -2644 -97 callgsubr
        </CharString>
        <CharString name="dvMatraI.a44">
          -80 callgsubr
          2507 -74 callgsubr
          -2691 -97 callgsubr
        </CharString>
        <CharString name="dvMatraI.a45">
          -80 callgsubr
          2553 -74 callgsubr
          -2737 -97 callgsubr
        </CharString>
        <CharString name="dvMatraI.a46">
          -80 callgsubr
          2600 -74 callgsubr
          -2784 -97 callgsubr
        </CharString>
        <CharString name="dvMatraI.a47">
          -80 callgsubr
          2646 -74 callgsubr
          -2830 -97 callgsubr
        </CharString>
        <CharString name="dvMatraI.a48">
          -80 callgsubr
          2693 -74 callgsubr
          -2877 -97 callgsubr
        </CharString>
        <CharString name="dvMatraI.a49">
          391 -1 callsubr
          -136 114 0 callgsubr
          2739 231 callsubr
          -2923 -97 callgsubr
        </CharString>
        <CharString name="dvMatraI.a50">
          3241 668 rmoveto
          81 -42 callgsubr
          -2969 -72 callgsubr
          -127 -82 callsubr
          59 -136 114 -107 callsubr
          2785 -15 callgsubr
          vlineto
          endchar
        </CharString>
        <CharString name="dvNG_GA">
          164 710 305 rmoveto
          101 91 -101 hlineto
          -730 226 rmoveto
          -59 506 -78 -315 vlineto
          -64 callsubr
          -83 -98 callsubr
          312 hlineto
          268 callgsubr
          -116 vlineto
          -26 -5 -68 callgsubr
          -216 -9 callgsubr
          71 -137 -84 -98 callsubr
          5 -98 hlineto
          216 callsubr
          -33 -59 114 -86 callgsubr
          110 141 -242 126 242 2 108 callgsubr
          142 -61 callgsubr
          -311 -9 callgsubr
          57 130 callgsubr
          359 137 267 59 hlineto
          endchar
        </CharString>
        <CharString name="dvNG_MA">
          398 782 398 rmoveto
          -93 -91 93 hlineto
          75 -296 rmoveto
          -224 226 hlineto
          -37 callgsubr
          -293 hlineto
          -26 -7 5 26 hvcurveto
          48 130 callgsubr
          354 137 241 hlineto
          267 59 rmoveto
          -1144 -59 501 -78 -312 hlineto
          -64 callsubr
          -74 30 callgsubr
          296 -85 callgsubr
          -93 -76 callgsubr
          -200 -9 callgsubr
          62 -137 -75 -98 callsubr
          331 -161 130 73 224 -128 131 739 207 callsubr
        </CharString>
        <CharString name="dvNY_CA">
          840 1566 -1 callsubr
          -1586 -59 1313 -392 hlineto
          -26 -8 -8 -26 vhcurveto
          -276 hlineto
          38 callgsubr
          -77 -210 89 vlineto
          20 callsubr
          210 -103 256 callgsubr
        </CharString>
        <CharString name="dvSHA_MatraVocalicR">
          341 235 300 callsubr
          -147 vlineto
          -36 -34 rlineto
          -169 -9 callgsubr
          696 -333 rmoveto
          515 136 59 -272 -273 -204 vlineto
          9 5 4 12 18 vvcurveto
          160 vlineto
          53 -24 24 -53 vhcurveto
          -346 hlineto
          -53 -24 -24 -53 hvcurveto
          -177 30 callgsubr
          195 hlineto
          -215 -196 rlineto
          161 hlineto
          214 196 rlineto
          259 -183 -150 hlineto
          214 callgsubr
          327 59 -227 hlineto
          192 callgsubr
          endchar
        </CharString>
        <CharString name="dvSH_VA.aSimp">
          811 194 622 rmoveto
          -100 callgsubr
          962 hmoveto
          -783 -59 509 -392 hlineto
          -26 -8 -8 -26 vhcurveto
          -215 164 callsubr
          86 callgsubr
          309 -13 callsubr
        </CharString>
        <CharString name="dvTTH_TTHA">
          84 555 271 rmoveto
          -26 -5 -68 callgsubr
          -258 -85 callsubr
          124 -107 callsubr
          258 hlineto
          268 callgsubr
          -502 vmoveto
          -26 -5 -68 callgsubr
          -259 94 callsubr
          123 vlineto
          25 5 7 26 vhcurveto
          259 hlineto
          26 5 -7 -25 hvcurveto
          255 547 rmoveto
          59 -830 -59 350 -78 -152 vlineto
          -53 -26 -24 -53 hvcurveto
          -150 vlineto
          -53 26 -24 53 vhcurveto
          152 -75 -152 hlineto
          -53 -26 -24 -53 hvcurveto
          -149 vlineto
          -53 26 -24 53 vhcurveto
          435 147 callgsubr
          149 262 callsubr
          -150 75 150 147 callgsubr
          150 262 callsubr
          -150 78 hlineto
          endchar
        </CharString>
        <CharString name="dvTT_GA">
          60 640 240 callgsubr
          -806 -59 523 -78 -323 41 callgsubr
          -322 -88 callsubr
          7 -98 hlineto
          216 callsubr
          -33 -59 112 -86 callgsubr
          110 146 -242 125 242 9 vlineto
          -56 callgsubr
          169 -138 -156 -76 callgsubr
          -228 -85 callsubr
          296 153 callsubr
        </CharString>
        <CharString name="dvT_KH_NA">
          1796 1924 169 -99 callsubr
          598 196 rmoveto
          -2542 -59 864 -238 hlineto
          100 callsubr
          192 -463 -72 callgsubr
          -329 -95 callsubr
          233 -348 143 callgsubr
          1268 291 callsubr
          -221 46 callgsubr
          154 -107 callsubr
          194 59 -274 257 callsubr
          305 hlineto
          14 11 2 3 9 hvcurveto
          -32 327 callgsubr
          381 349 callgsubr
          -30 callgsubr
        </CharString>
        <CharString name="dvT_S_NA">
          1519 1971 283 callsubr
          -68 -190 vlineto
          -80 callsubr
          927 hlineto
          -324 -394 rmoveto
          -26 -5 -106 callsubr
          236 hlineto
          599 196 rmoveto
          -2266 -59 907 hlineto
          32 callsubr
          -477 -72 callgsubr
          -329 -95 callsubr
          247 -43 callsubr
          591 -124 -11 callsubr
        </CharString>
        <CharString name="e">
          -71 201 278 -66 callgsubr
        </CharString>
        <CharString name="eacute">
          -76 553 678 29 callgsubr
          -187 -254 -66 callgsubr
        </CharString>
        <CharString name="ecaron">
          -76 384 532 -14 callgsubr
          -52 -254 -66 callgsubr
        </CharString>
        <CharString name="ecircumflex">
          -76 323 628 rmoveto
          45 callsubr
          -172 -149 rlineto
          135 hlineto
          -20 -254 -66 callgsubr
        </CharString>
        <CharString name="edieresis">
          -76 260 631 rmoveto
          -156 -99 156 hlineto
          276 99 rmoveto
          -155 -99 155 hlineto
          -388 -47 5 callgsubr
          341 56 callgsubr
          -182 150 callsubr
          372 187 -43 callgsubr
          -293 -207 139 callsubr
          184 139 callgsubr
          endchar
        </CharString>
        <CharString name="edotaccent">
          -76 398 637 308 callsubr
          -199 -254 -66 callgsubr
        </CharString>
        <CharString name="egrave">
          -76 389 532 135 callsubr
          -75 -254 -66 callgsubr
        </CharString>
        <CharString name="eight">
          -32 347 callsubr
          -171 vlineto
          -37 17 -20 32 -2 vhcurveto
          -32 -4 -17 -18 -36 vvcurveto
          -176 314 callsubr
          176 vlineto
          36 -17 18 -32 4 vhcurveto
          32 2 17 20 37 vvcurveto
          171 -43 callgsubr
          -303 -370 276 callgsubr
          187 -53 callsubr
          -162 -17 callsubr
          -187 -58 callgsubr
          249 284 95 callgsubr
          -187 64 callgsubr
          endchar
        </CharString>
        <CharString name="ellipsis">
          97 59 hmoveto
          149 122 -149 hlineto
          273 -122 rmoveto
          148 122 -148 hlineto
          269 -122 rmoveto
          149 122 -149 hlineto
          endchar
        </CharString>
        <CharString name="emacron">
          -76 519 593 267 callsubr
          -320 -257 -66 callgsubr
        </CharString>
        <CharString name="emdash">
          233 61 262 rmoveto
          814 59 -814 hlineto
          endchar
        </CharString>
        <CharString name="endash">
          -51 61 262 rmoveto
          491 59 -491 hlineto
          endchar
        </CharString>
        <CharString name="eogonek">
          -76 199 278 139 callsubr
          183 139 callgsubr
          -295 207 5 callgsubr
          112 122 callgsubr
          -163 hlineto
          303 callsubr
          101 56 callgsubr
          -181 150 callsubr
          371 153 callgsubr
        </CharString>
        <CharString name="equal">
          -3 72 360 rmoveto
          559 90 -559 hlineto
          -280 vmoveto
          559 90 -559 hlineto
          endchar
        </CharString>
        <CharString name="eth">
          -236 472 223 callsubr
          -196 -58 callgsubr
          197 -39 callsubr
          227 -3 hlineto
          121 211 rmoveto
          57 vlineto
          -116 -30 -32 30 -32 23 -24 16 rlinecurve
          -175 hlineto
          39 -23 56 -33 49 -43 -121 -31 rcurveline
          -57 vlineto
          166 43 26 -30 22 -34 11 -37 rlinecurve
          -298 1 callgsubr
          -219 314 callsubr
          233 vlineto
          77 -36 66 -44 53 vhcurveto
          endchar
        </CharString>
        <CharString name="exclam">
          -395 80 -1 callsubr
          23 -419 rlineto
          106 hlineto
          23 419 rlineto
          -148 -622 rmoveto
          143 125 -143 hlineto
          endchar
        </CharString>
        <CharString name="exclamdown">
          -402 99 282 rmoveto
          -23 -419 rlineto
          152 hlineto
          -23 419 rlineto
          -124 203 rmoveto
          -126 142 126 vlineto
          endchar
        </CharString>
        <CharString name="f">
          -316 382 607 rmoveto
          62 -185 vlineto
          -32 callgsubr
          -105 -72 -59 72 -426 129 426 135 59 -135 91 -39 callsubr
          endchar
        </CharString>
        <CharString name="fi">
          -61 565 485 rmoveto
          -311 91 hlineto
          -27 callgsubr
          100 62 -181 271 callgsubr
          vlineto
          -130 669 rmoveto
          -86 132 86 vlineto
          endchar
        </CharString>
        <CharString name="five">
          -55 221 379 rmoveto
          184 365 59 -503 -302 349 vlineto
          -36 callgsubr
          -199 -17 callsubr
          -188 -58 callgsubr
          111 -134 -122 -70 callsubr
          359 -39 callgsubr
          221 -43 callgsubr
          endchar
        </CharString>
        <CharString name="fl">
          -60 436 669 rmoveto
          -184 -182 91 -39 callsubr
          101 62 -182 271 callgsubr
          669 vlineto
          endchar
        </CharString>
        <CharString name="florin">
          -210 466 599 rmoveto
          63 -116 vlineto
          -87 -27 -34 -60 -9 hvcurveto
          -13 -83 rlineto
          -105 -59 96 hlineto
          -73 -468 rlineto
          -29 -5 -7 -8 -29 hhcurveto
          -66 -62 115 hlineto
          87 27 34 59 10 hvcurveto
          74 474 rlineto
          120 59 -111 hlineto
          12 78 rlineto
          29 4 8 7 28 hhcurveto
          endchar
        </CharString>
        <CharString name="four">
          -33 656 160 rmoveto
          -108 168 -127 -168 -248 hlineto
          286 462 rlineto
          -139 hlineto
          -286 -451 rlineto
          -70 387 -101 127 101 108 vlineto
          endchar
        </CharString>
        <CharString name="fraction">
          -161 435 -1 callsubr
          -416 -622 rlineto
          112 hlineto
          417 622 rlineto
          endchar
        </CharString>
        <CharString name="g">
          -71 232 59 -40 callgsubr
          164 -38 rmoveto
          464 -129 -31 -42 callsubr
          -20 1 -62 -17 callsubr
          -310 -59 391 -39 callgsubr
          83 vlineto
          endchar
        </CharString>
        <CharString name="gbreve">
          -73 465 532 67 callgsubr
          47 -473 -40 callgsubr
          164 -38 rmoveto
          464 -129 -31 -42 callsubr
          -20 1 -62 -17 callsubr
          -310 -59 391 -39 callgsubr
          83 vlineto
          endchar
        </CharString>
        <CharString name="germandbls">
          145 331 154 rmoveto
          -75 -70 callsubr
          314 -39 callgsubr
          132 -43 callgsubr
          -237 -58 callgsubr
          53 -39 callsubr
          200 hlineto
          47 25 24 46 hvcurveto
          68 -43 callgsubr
          -511 1 callgsubr
          -543 131 530 -31 callsubr
          342 hlineto
          268 callgsubr
          -39 vlineto
          -23 -6 -5 -29 vhcurveto
          -183 hlineto
          -49 -27 -24 -55 hvcurveto
          -73 -70 callsubr
          234 -53 callsubr
          -111 -17 callsubr
          -154 -58 callgsubr
          64 vlineto
          endchar
        </CharString>
        <CharString name="grave">
          -198 309 652 177 callsubr
        </CharString>
        <CharString name="greater">
          -23 536 312 rmoveto
          -484 -90 rlineto
          -96 vlineto
          594 136 rlineto
          101 vlineto
          -594 132 rlineto
          -95 vlineto
          endchar
        </CharString>
        <CharString name="greaterequal">
          21 63 105 rmoveto
          611 77 -611 hlineto
          509 170 rmoveto
          -509 -63 rlineto
          -89 vlineto
          611 102 rlineto
          102 vlineto
          -611 99 rlineto
          -89 vlineto
          endchar
        </CharString>
        <CharString name="guillemotleft">
          -107 465 407 rmoveto
          -191 hlineto
          -130 -152 130 -153 rlineto
          191 hlineto
          -131 152 rlineto
          endchar
        </CharString>
        <CharString name="guillemotright">
          -115 320 407 rmoveto
          -190 hlineto
          130 -153 -130 -152 rlineto
          190 hlineto
          130 153 rlineto
          endchar
        </CharString>
        <CharString name="guilsinglleft">
          -360 178 102 rmoveto
          138 hlineto
          -131 152 131 153 rlineto
          -138 hlineto
          -130 -152 rlineto
          endchar
        </CharString>
        <CharString name="guilsinglright">
          -362 303 255 rmoveto
          -130 152 rlineto
          -138 hlineto
          131 -153 -131 -152 rlineto
          138 hlineto
          endchar
        </CharString>
        <CharString name="h">
          -63 266 485 267 callgsubr
          218 -129 -669 129 363 1 30 315 callsubr
          -395 130 189 callgsubr
        </CharString>
        <CharString name="hungarumlaut">
          -77 462 667 rmoveto
          -149 -161 rlineto
          102 hlineto
          177 161 rlineto
          -356 hmoveto
          -147 310 callsubr
          174 161 rlineto
          endchar
        </CharString>
        <CharString name="hyphen">
          -292 59 242 rmoveto
          296 59 -296 hlineto
          endchar
        </CharString>
        <CharString name="i">
          -402 217 hmoveto
          485 -130 -485 vlineto
          -2 573 rmoveto
          135 97 -135 hlineto
          endchar
        </CharString>
        <CharString name="iacute">
          192 callsubr
          13 532 83 callgsubr
          endchar
        </CharString>
        <CharString name="icircumflex">
          192 callsubr
          -173 532 rmoveto
          135 hlineto
          104 96 45 callsubr
          endchar
        </CharString>
        <CharString name="idieresis">
          192 callsubr
          128 631 237 callgsubr
        </CharString>
        <CharString name="igrave">
          192 callsubr
          -24 678 177 callsubr
        </CharString>
        <CharString name="imacron">
          192 callsubr
          -133 535 285 callgsubr
          endchar
        </CharString>
        <CharString name="infinity">
          253 330 194 rmoveto
          79 23 11 62 44 hvcurveto
          11 14 22 -27 rlineto
          -50 42 20 -10 70 hhcurveto
          184 hlineto
          55 24 27 49 hvcurveto
          149 vlineto
          48 -24 28 -55 vhcurveto
          -196 hlineto
          -67 -15 -14 -55 -40 hvcurveto
          -21 -30 -32 40 rlineto
          43 -35 -18 16 -62 hhcurveto
          -206 hlineto
          -54 -23 -28 -48 hvcurveto
          -149 vlineto
          -49 23 -27 54 vhcurveto
          441 208 rmoveto
          20 15 11 11 22 hhcurveto
          145 hlineto
          31 3 -10 -24 hvcurveto
          -109 vlineto
          -26 -3 -8 -31 vhcurveto
          -136 hlineto
          -24 -13 10 16 -14 hvcurveto
          -51 58 rlineto
          -124 -50 rmoveto
          -20 -14 -20 -14 -27 hhcurveto
          -151 hlineto
          -32 -3 8 26 hvcurveto
          109 vlineto
          24 3 9 32 vhcurveto
          143 hlineto
          28 12 -12 -21 17 hvcurveto
          48 -61 rlineto
          endchar
        </CharString>
        <CharString name="integral">
          -284 276 618 276 callgsubr
          85 62 -170 1 callgsubr
          -664 vlineto
          -26 -2 -3 -5 -26 hhcurveto
          -85 -62 170 -39 callgsubr
          endchar
        </CharString>
        <CharString name="iogonek">
          -402 220 670 rmoveto
          -135 -97 135 hlineto
          -146 -756 rmoveto
          303 callsubr
          2 485 -130 -485 1 122 callgsubr
          hlineto
          endchar
        </CharString>
        <CharString name="itfLogo">
          908 1299 220 rmoveto
          337 callsubr
          38 vmoveto
          337 callsubr
          -232 295 callgsubr
          -232 -182 rmoveto
          193 182 -193 hlineto
          -231 295 callgsubr
          -232 -182 rmoveto
          337 callsubr
          -231 295 callgsubr
          endchar
        </CharString>
        <CharString name="itfStar">
          -36 660 441 rmoveto
          -258 -8 -66 243 -69 -243 -257 8 218 -139 -94 -242 202 165 201 -165 -92 242 rlineto
          endchar
        </CharString>
        <CharString name="j">
          -409 87 -51 95 callgsubr
          -92 -59 174 -39 callgsubr
          547 -130 vlineto
          -2 88 rmoveto
          135 97 -135 hlineto
          endchar
        </CharString>
        <CharString name="k">
          -81 80 hmoveto
          129 669 -129 hlineto
          526 -184 264 callsubr
        </CharString>
        <CharString name="l">
          -399 218 hmoveto
          338 callsubr
          endchar
        </CharString>
        <CharString name="lacute">
          -402 101 716 83 callgsubr
          -23 -862 rmoveto
          338 callsubr
          endchar
        </CharString>
        <CharString name="lcaron">
          -382 88 669 rmoveto
          -669 129 669 vlineto
          85 -1 rmoveto
          344 callgsubr
          endchar
        </CharString>
        <CharString name="less">
          -23 632 400 rmoveto
          95 vlineto
          -595 -132 rlineto
          -101 vlineto
          595 -136 rlineto
          96 vlineto
          -485 90 rlineto
          endchar
        </CharString>
        <CharString name="lessequal">
          21 664 182 rmoveto
          -611 -77 611 hlineto
          309 vmoveto
          89 vlineto
          -610 -99 rlineto
          -102 vlineto
          610 -102 rlineto
          89 vlineto
          -509 63 rlineto
          endchar
        </CharString>
        <CharString name="logicalnot">
          54 693 398 rmoveto
          -630 -104 546 -145 84 hlineto
          endchar
        </CharString>
        <CharString name="lozenge">
          42 697 313 rmoveto
          -267 309 rlineto
          -123 hlineto
          -256 -309 256 -313 rlineto
          123 hlineto
          127 313 rmoveto
          -188 -229 -177 229 177 226 rlineto
          endchar
        </CharString>
        <CharString name="lslash">
          -397 345 438 rmoveto
          -126 -42 rlineto
          273 -129 -316 vlineto
          -121 -40 rlineto
          -64 vlineto
          121 41 rlineto
          -290 129 333 vlineto
          126 42 rlineto
          endchar
        </CharString>
        <CharString name="m">
          273 622 485 rmoveto
          -35 -21 -14 -28 -8 hvcurveto
          28 -10 -24 14 -39 hhcurveto
          -220 hlineto
          -30 -18 -10 -21 -8 hvcurveto
          31 -129 -485 129 393 vlineto
          24 11 9 24 vhcurveto
          159 344 callsubr
          389 vlineto
          25 10 12 26 vhcurveto
          148 -53 callsubr
          -395 129 189 callgsubr
        </CharString>
        <CharString name="macron">
          -77 113 550 285 callgsubr
          endchar
        </CharString>
        <CharString name="minus">
          18 348 callsubr
          endchar
        </CharString>
        <CharString name="multiply">
          -43 593 438 rmoveto
          -61 71 -194 -137 -195 137 -61 -71 175 -123 -171 -121 60 -71 192 135 191 -135 61 71 -172 121 rlineto
          endchar
        </CharString>
        <CharString name="n">
          -64 266 485 6 callsubr
        </CharString>
        <CharString name="nacute">
          -64 583 678 29 callgsubr
          -150 -47 6 callsubr
        </CharString>
        <CharString name="ncaron">
          -64 398 532 -14 callgsubr
          1 -47 6 callsubr
        </CharString>
        <CharString name="nine">
          -35 241 318 332 callsubr
          183 -39 callsubr
          184 -53 callsubr
          -214 vlineto
          -302 304 rmoveto
          -32 callgsubr
          -205 -70 callsubr
          302 -169 hlineto
          -36 callsubr
          -178 113 callsubr
          351 hlineto
          159 callgsubr
        </CharString>
        <CharString name="notequal">
          -7 629 359 rmoveto
          87 -129 vlineto
          56 69 rlineto
          -84 hlineto
          -56 -69 rlineto
          -346 -87 276 hlineto
          -75 -92 rlineto
          -201 -87 131 hlineto
          -60 -74 rlineto
          83 hlineto
          60 74 rlineto
          345 87 -274 hlineto
          74 92 rlineto
          endchar
        </CharString>
        <CharString name="ntilde">
          -64 206 588 rmoveto
          14 5 8 13 vhcurveto
          -12 callgsubr
          vlineto
          60 -47 6 callsubr
        </CharString>
        <CharString name="numbersign">
          243 572 231 rmoveto
          -234 hlineto
          52 160 rlineto
          235 hlineto
          270 hmoveto
          75 -132 vlineto
          51 156 rlineto
          -113 hlineto
          -51 -156 rlineto
          -235 hlineto
          51 156 rlineto
          -113 hlineto
          -51 -156 rlineto
          -197 -75 172 hlineto
          -53 -160 rlineto
          -170 -75 145 hlineto
          -51 -156 rlineto
          114 hlineto
          51 156 rlineto
          234 hlineto
          -51 -156 rlineto
          113 hlineto
          51 156 rlineto
          184 75 -159 hlineto
          53 160 rlineto
          endchar
        </CharString>
        <CharString name="o">
          -69 437 90 -37 callsubr
        </CharString>
        <CharString name="oacute">
          -70 555 678 29 callgsubr
          49 -442 -37 callsubr
        </CharString>
        <CharString name="ocircumflex">
          -70 320 628 rmoveto
          45 callsubr
          -172 -149 rlineto
          135 hlineto
          221 -442 -37 callsubr
        </CharString>
        <CharString name="odieresis">
          -70 150 485 5 callgsubr
          336 312 callgsubr
          -49 -90 rmoveto
          -305 vlineto
          32 callgsubr
          -332 236 301 callsubr
        </CharString>
        <CharString name="oe">
          268 556 278 139 callsubr
          168 139 callgsubr
          -359 -189 rmoveto
          -24 -10 -6 -23 vhcurveto
          -162 16 callsubr
          162 hlineto
          23 10 -7 -23 hvcurveto
          137 89 rmoveto
          -53 -17 -16 -21 -6 hvcurveto
          21 -7 -21 16 -55 hhcurveto
          -254 hlineto
          -59 callgsubr
          253 hlineto
          55 21 347 callgsubr
          269 -39 callgsubr
          66 -127 -55 -17 callsubr
          -166 150 callsubr
          356 153 callgsubr
        </CharString>
        <CharString name="ogonek">
          -77 298 291 callgsubr
          101 -127 -47 -65 hlineto
          169 callgsubr
        </CharString>
        <CharString name="ograve">
          -70 382 532 135 callsubr
          170 -442 -37 callsubr
        </CharString>
        <CharString name="ohungarumlaut">
          -70 150 485 5 callgsubr
          336 312 callgsubr
          -49 -90 rmoveto
          -305 vlineto
          32 callgsubr
          -127 298 rmoveto
          -146 310 callsubr
          173 161 rlineto
          96 hmoveto
          -149 310 callsubr
          176 161 rlineto
          endchar
        </CharString>
        <CharString name="omacron">
          -70 517 593 267 callsubr
          -80 -445 -37 callsubr
        </CharString>
        <CharString name="one">
          -338 288 -1 callsubr
          -264 -59 127 -563 137 hlineto
          endchar
        </CharString>
        <CharString name="onesuperior">
          -447 195 -1 callsubr
          -171 -42 81 -300 90 hlineto
          endchar
        </CharString>
        <CharString name="ordfeminine">
          -266 167 322 rmoveto
          -19 -4 4 18 hvcurveto
          214 vlineto
          19 4 3 19 vhcurveto
          97 hlineto
          17 8 -6 -18 hvcurveto
          -210 vlineto
          -17 -8 -7 -17 vhcurveto
          25 300 rmoveto
          -23 vlineto
          16 -6 -12 7 -22 hhcurveto
          -140 hlineto
          -38 -18 -18 -38 hvcurveto
          -230 vlineto
          -38 18 -18 38 vhcurveto
          140 hlineto
          22 12 7 16 6 hvcurveto
          -23 92 342 vlineto
          endchar
        </CharString>
        <CharString name="ordmasculine">
          -266 375 570 rmoveto
          35 -17 17 -34 vhcurveto
          -212 hlineto
          -35 -17 -17 -35 hvcurveto
          -238 vlineto
          -35 17 -17 35 vhcurveto
          212 hlineto
          34 17 17 35 hvcurveto
          -88 11 rmoveto
          -17 -3 -4 -17 vhcurveto
          -99 hlineto
          -18 -3 4 17 hvcurveto
          217 vlineto
          17 3 3 18 vhcurveto
          99 hlineto
          17 3 -3 -17 hvcurveto
          endchar
        </CharString>
        <CharString name="oslash">
          -55 449 87 rmoveto
          -27 -5 -5 -27 vhcurveto
          -183 hlineto
          -11 -7 1 3 -4 hvcurveto
          237 279 rlineto
          -246 61 276 callgsubr
          183 hlineto
          15 8 -2 -6 5 hvcurveto
          -242 -284 rlineto
          393 373 rmoveto
          -76 hlineto
          -22 -26 rlineto
          -5 hlineto
          -335 1 callgsubr
          -327 vlineto
          -28 7 -20 15 -13 vhcurveto
          -38 -45 rlineto
          76 hlineto
          23 27 rlineto
          331 -39 callgsubr
          327 vlineto
          25 -6 19 -11 13 vhcurveto
          endchar
        </CharString>
        <CharString name="otilde">
          -70 202 588 rmoveto
          14 5 8 13 vhcurveto
          -12 callgsubr
          vlineto
          235 -442 -37 callsubr
        </CharString>
        <CharString name="p">
          -56 449 223 callsubr
          -174 hlineto
          -24 -11 9 24 hvcurveto
          300 vlineto
          25 11 9 24 vhcurveto
          174 -53 callsubr
          -184 90 rmoveto
          -31 -18 -11 -24 -8 hvcurveto
          35 -128 -626 129 172 vlineto
          -21 8 18 -10 30 hhcurveto
          234 312 callgsubr
          endchar
        </CharString>
        <CharString name="paragraph">
          47 434 -1 callsubr
          -287 1 callgsubr
          -244 -70 callsubr
          169 -361 118 hlineto
          115 763 rmoveto
          -763 118 763 vlineto
          endchar
        </CharString>
        <CharString name="parenleft">
          -354 86 137 rmoveto
          -253 110 -103 173 vhcurveto
          36 59 -25 hlineto
          -108 5 -53 92 182 vvcurveto
          260 vlineto
          181 53 94 108 5 vhcurveto
          25 59 -36 hlineto
          -173 -110 -104 -253 hvcurveto
          endchar
        </CharString>
        <CharString name="parenright">
          -354 266 361 rmoveto
          253 -110 104 -172 vhcurveto
          -37 -59 25 hlineto
          108 -5 53 -94 -181 vvcurveto
          -260 vlineto
          -182 -53 -92 -108 -5 vhcurveto
          -25 -59 37 hlineto
          172 110 103 253 hvcurveto
          endchar
        </CharString>
        <CharString name="percent">
          422 1076 280 rmoveto
          42 -19 21 -41 vhcurveto
          -259 hlineto
          -41 295 callsubr
          41 vhcurveto
          259 196 callgsubr
          -233 355 rmoveto
          -467 -622 rlineto
          107 hlineto
          469 113 callgsubr
          endchar
        </CharString>
        <CharString name="period">
          -446 59 hmoveto
          142 125 -142 hlineto
          endchar
        </CharString>
        <CharString name="periodcentered">
          -418 75 251 rmoveto
          142 126 -142 hlineto
          endchar
        </CharString>
        <CharString name="perthousand">
          895 1077 280 rmoveto
          42 -18 21 -42 vhcurveto
          -259 hlineto
          -41 295 callsubr
          41 vhcurveto
          259 hlineto
          42 18 20 43 hvcurveto
          -101 13 rmoveto
          -22 -3 -4 -22 vhcurveto
          -126 hlineto
          -22 -3 4 22 hvcurveto
          190 vlineto
          21 351 callgsubr
          -21 hvcurveto
          -233 355 rmoveto
          -467 -622 rlineto
          108 hlineto
          468 113 callgsubr
          1215 -265 rmoveto
          42 -19 21 -41 vhcurveto
          -260 hlineto
          -40 295 callsubr
          40 vhcurveto
          260 196 callgsubr
          endchar
        </CharString>
        <CharString name="pi">
          135 793 485 rmoveto
          -730 -59 107 -332 hlineto
          -36 callsubr
          -72 -63 153 -39 callgsubr
          347 250 -426 128 426 116 vlineto
          endchar
        </CharString>
        <CharString name="plus">
          -32 617 355 rmoveto
          -217 153 -126 -153 -217 -89 217 -153 126 153 217 hlineto
          endchar
        </CharString>
        <CharString name="plusminus">
          -6 67 123 rmoveto
          560 74 -560 hlineto
          340 208 rmoveto
          103 -120 -103 -220 -82 220 -86 120 86 220 82 vlineto
          endchar
        </CharString>
        <CharString name="product">
          50 668 -1 callsubr
          -520 -528 hlineto
          -36 callsubr
          -87 -63 168 -39 callgsubr
          484 262 -563 128 563 1 vlineto
          endchar
        </CharString>
        <CharString name="q">
          -61 257 59 16 callgsubr
          173 hlineto
          25 10 -9 -25 hvcurveto
          -300 174 callgsubr
          37 426 rmoveto
          -35 vlineto
          24 -8 -18 11 -31 hhcurveto
          -234 hlineto
          -59 callgsubr
          234 hlineto
          29 17 10 19 9 hvcurveto
          -170 130 626 vlineto
          endchar
        </CharString>
        <CharString name="question">
          -111 207 hmoveto
          143 125 -143 hlineto
          -101 497 rmoveto
          -55 -24 -29 -49 hvcurveto
          -112 131 99 vlineto
          25 4 8 26 vhcurveto
          198 hlineto
          25 4 -8 -25 hvcurveto
          -166 vlineto
          -25 -4 -7 -25 vhcurveto
          -171 hlineto
          10 -130 rlineto
          109 hlineto
          6 68 rlineto
          127 hlineto
          54 25 29 49 hvcurveto
          195 vlineto
          49 -25 29 -54 vhcurveto
          endchar
        </CharString>
        <CharString name="questiondown">
          -78 416 484 rmoveto
          -143 -125 143 hlineto
          49 -307 rmoveto
          -99 vlineto
          -25 -4 -7 callsubr
          -198 hlineto
          -25 -4 8 25 hvcurveto
          166 vlineto
          25 4 7 25 vhcurveto
          171 hlineto
          -10 130 rlineto
          -109 hlineto
          -6 -68 rlineto
          -127 hlineto
          -54 -25 -29 -49 hvcurveto
          -195 vlineto
          -49 25 -29 54 vhcurveto
          361 hlineto
          55 24 29 49 hvcurveto
          112 vlineto
          endchar
        </CharString>
        <CharString name="quotedbl">
          -296 57 -1 callsubr
          -232 117 232 vlineto
          62 hmoveto
          -232 117 232 vlineto
          endchar
        </CharString>
        <CharString name="quotedblbase">
          -265 253 -131 283 callgsubr
          -194 -263 283 callgsubr
          endchar
        </CharString>
        <CharString name="quotedblleft">
          -265 303 callgsubr
          194 263 rmoveto
          -47 hlineto
          -96 -199 rlineto
          -64 143 vlineto
          endchar
        </CharString>
        <CharString name="quotedblright">
          -265 253 359 284 callgsubr
          -194 -263 284 callgsubr
          endchar
        </CharString>
        <CharString name="quoteleft">
          -455 303 callgsubr
          endchar
        </CharString>
        <CharString name="quoteright">
          -455 59 359 284 callgsubr
          endchar
        </CharString>
        <CharString name="quotesinglbase">
          -456 59 -131 283 callgsubr
          endchar
        </CharString>
        <CharString name="quotesingle">
          -471 57 -1 callsubr
          -232 121 232 vlineto
          endchar
        </CharString>
        <CharString name="r">
          -310 301 486 236 callgsubr
        </CharString>
        <CharString name="racute">
          -309 483 679 29 callgsubr
          -107 229 callsubr
        </CharString>
        <CharString name="rcaron">
          -309 306 533 -14 callgsubr
          36 229 callsubr
        </CharString>
        <CharString name="registered">
          -77 574 532 rmoveto
          102 -39 56 -111 vhcurveto
          -219 hlineto
          -112 -38 -56 -102 hvcurveto
          -37 vlineto
          -101 38 -54 112 vhcurveto
          219 hlineto
          111 39 54 101 hvcurveto
          -358 -114 rmoveto
          -67 -22 41 70 hvcurveto
          44 vlineto
          70 22 46 67 vhcurveto
          198 hlineto
          67 22 -46 -70 hvcurveto
          -44 vlineto
          -70 -22 -41 -67 vhcurveto
          -195 232 rmoveto
          -193 58 70 31 vlineto
          43 -70 rlineto
          63 hlineto
          -47 71 rlineto
          9 hlineto
          21 8 14 17 hvcurveto
          60 vlineto
          20 -11 11 -21 vhcurveto
          -26 -79 rmoveto
          -8 -3 -3 -8 vhcurveto
          -59 59 59 hlineto
          8 3 -3 -8 hvcurveto
          endchar
        </CharString>
        <CharString name="ring">
          -77 483 609 133 callsubr
          endchar
        </CharString>
        <CharString name="s">
          -114 402 89 63 callgsubr
        </CharString>
        <CharString name="sacute">
          -116 259 532 83 callgsubr
          4 -589 63 callgsubr
        </CharString>
        <CharString name="scaron">
          -116 237 532 145 callsubr
          337 -592 63 callgsubr
        </CharString>
        <CharString name="section">
          18 563 197 rmoveto
          32 6 22 27 48 vvcurveto
          92 -43 callgsubr
          -216 -58 callgsubr
          91 -39 callsubr
          135 -53 callsubr
          -46 132 57 -43 callgsubr
          -303 1 callgsubr
          -113 vlineto
          -30 16 -14 11 -8 vhcurveto
          -32 -7 -21 -30 -47 vvcurveto
          -88 -70 callsubr
          215 -53 callsubr
          -91 -17 callsubr
          -134 -58 callgsubr
          46 -132 -57 -70 callsubr
          301 -39 callgsubr
          109 vlineto
          29 -15 18 -11 8 vhcurveto
          -109 193 rmoveto
          -36 callgsubr
          -103 -17 callsubr
          -158 -58 callgsubr
          103 -39 callsubr
          endchar
        </CharString>
        <CharString name="semicolon">
          -455 59 360 rmoveto
          142 125 -142 hlineto
          -623 vmoveto
          47 hlineto
          95 198 rlineto
          72 -142 vlineto
          endchar
        </CharString>
        <CharString name="seven">
          -168 521 -1 callsubr
          -488 -59 349 hlineto
          -273 -563 rlineto
          142 hlineto
          270 560 rlineto
          endchar
        </CharString>
        <CharString name="six">
          -39 462 223 callsubr
          -185 -58 callgsubr
          208 216 vlineto
          -36 callgsubr
          -247 90 rmoveto
          175 -39 callsubr
          180 -53 callsubr
          -104 133 115 -43 callgsubr
          -352 1 callgsubr
          -464 314 callsubr
          199 -43 callgsubr
          endchar
        </CharString>
        <CharString name="slash">
          -276 279 callgsubr
        </CharString>
        <CharString name="space">
          -432 endchar
        </CharString>
        <CharString name="sterling">
          -7 241 81 rmoveto
          30 15 4 37 58 vvcurveto
          81 269 59 -269 201 -39 callsubr
          167 -53 callsubr
          -101 134 112 -43 callgsubr
          -340 1 callgsubr
          -212 -82 -59 82 -88 vlineto
          -67 -19 -43 -56 -4 vhcurveto
          -70 585 81 vlineto
          endchar
        </CharString>
        <CharString name="t">
          -322 350 426 208 callsubr
        </CharString>
        <CharString name="tcaron">
          -323 238 581 rmoveto
          -129 -96 -78 -59 78 -347 hlineto
          -50 callsubr
          161 63 -80 -58 callgsubr
          332 112 59 -112 vlineto
          58 242 rmoveto
          -174 39 vlineto
          76 122 rlineto
          52 vlineto
          endchar
        </CharString>
        <CharString name="thorn">
          -64 441 100 95 callgsubr
          -166 hlineto
          -24 -11 9 24 hvcurveto
          300 260 callsubr
          209 -128 -810 129 182 vlineto
          -21 8 18 -10 30 hhcurveto
          226 -39 callgsubr
          326 -43 callgsubr
          endchar
        </CharString>
        <CharString name="three">
          -36 203 532 276 callgsubr
          200 -53 callsubr
          -156 -17 callsubr
          -159 -60 159 -53 callsubr
          -164 -17 callsubr
          -200 -58 callgsubr
          105 -134 -116 -70 callsubr
          372 -39 callgsubr
          180 vlineto
          36 -18 18 -32 4 vhcurveto
          32 2 18 20 37 vvcurveto
          167 -43 callgsubr
          -372 1 callgsubr
          -117 134 vlineto
          endchar
        </CharString>
        <CharString name="threesuperior">
          -300 143 563 rmoveto
          14 3 3 14 vhcurveto
          92 hlineto
          14 3 -3 -14 hvcurveto
          -71 vlineto
          -15 -3 -2 -14 vhcurveto
          -90 -43 90 hlineto
          14 3 -3 -14 hvcurveto
          -75 vlineto
          -15 -3 -3 -14 vhcurveto
          -92 hlineto
          -14 -3 3 15 hvcurveto
          47 -84 -64 vlineto
          -29 15 -14 29 vhcurveto
          206 hlineto
          29 15 14 29 hvcurveto
          99 vlineto
          21 -10 10 -17 1 vhcurveto
          17 1 10 12 20 vvcurveto
          92 vlineto
          29 -15 14 -29 vhcurveto
          -206 hlineto
          -29 -15 -14 -29 hvcurveto
          -65 84 vlineto
          endchar
        </CharString>
        <CharString name="tilde">
          -77 213 597 rmoveto
          -12 callgsubr
          56 vlineto
          14 5 8 13 vhcurveto
          endchar
        </CharString>
        <CharString name="trademark">
          257 22 560 rmoveto
          126 -272 103 272 126 62 -355 hlineto
          770 hmoveto
          -119 -207 -116 207 rlineto
          -116 -334 95 230 hlineto
          98 -175 rlineto
          78 hlineto
          101 174 rlineto
          -229 95 334 vlineto
          endchar
        </CharString>
        <CharString name="two">
          -69 190 532 276 callgsubr
          196 -53 callsubr
          -50 vlineto
          -54 -19 -28 -40 -37 vhcurveto
          -334 -304 rlineto
          -59 530 59 -352 vlineto
          286 261 rlineto
          52 48 11 33 78 vvcurveto
          64 -43 callgsubr
          -369 1 callgsubr
          -133 135 vlineto
          endchar
        </CharString>
        <CharString name="twosuperior">
          -321 147 callsubr
          rmoveto
          14 3 3 14 vhcurveto
          86 hlineto
          15 2 -3 -14 hvcurveto
          -25 vlineto
          -31 -10 -21 -21 -18 vhcurveto
          -169 -144 rlineto
          -44 282 44 -176 vlineto
          137 112 rlineto
          28 24 13 29 48 vvcurveto
          42 vlineto
          29 -14 14 -29 vhcurveto
          -201 hlineto
          -29 -14 -14 -29 hvcurveto
          -70 83 vlineto
          endchar
        </CharString>
        <CharString name="u">
          -64 433 485 -14 callsubr
        </CharString>
        <CharString name="uacute">
          -64 544 678 29 callgsubr
          56 -47 -14 callsubr
        </CharString>
        <CharString name="ucircumflex">
          -64 316 628 rmoveto
          45 callsubr
          -172 -149 rlineto
          135 hlineto
          221 -47 -14 callsubr
        </CharString>
        <CharString name="udieresis">
          -57 533 631 221 callgsubr
          177 -47 168 callgsubr
        </CharString>
        <CharString name="ugrave">
          -64 393 532 135 callsubr
          155 -47 -14 callsubr
        </CharString>
        <CharString name="uhungarumlaut">
          -64 481 533 rmoveto
          176 161 rlineto
          -130 hlineto
          -149 -161 rlineto
          53 161 rmoveto
          -130 hlineto
          -146 310 callsubr
          175 -48 168 callgsubr
        </CharString>
        <CharString name="umacron">
          -64 517 594 267 callsubr
          -84 -51 -14 callsubr
        </CharString>
        <CharString name="underscore">
          -101 3 -59 rmoveto
          599 59 -599 hlineto
          endchar
        </CharString>
        <CharString name="uni00AD">
          -349 55 256 rmoveto
          246 58 -246 hlineto
          endchar
        </CharString>
        <CharString name="uni00B5">
          -54 442 485 rmoveto
          -393 vlineto
          -24 -11 -9 -24 vhcurveto
          -166 -58 callgsubr
          395 -130 -626 130 141 176 vlineto
          101 callgsubr
          -31 129 271 callsubr
        </CharString>
        <CharString name="uni0122">
          -30 271 -239 18 callsubr
          336 476 22 callsubr
        </CharString>
        <CharString name="uni0123">
          -73 413 722 rmoveto
          -43 hlineto
          -92 -136 rlineto
          -55 135 vlineto
          -181 -472 -40 callgsubr
          164 -38 rmoveto
          464 -129 -31 -42 callsubr
          -20 1 -62 -17 callsubr
          -310 -59 391 -39 callgsubr
          83 vlineto
          endchar
        </CharString>
        <CharString name="uni0136">
          -17 88 -1 callsubr
          -622 131 622 vlineto
          290 hmoveto
          272 callgsubr
          -372 -861 157 callsubr
        </CharString>
        <CharString name="uni0137">
          -84 80 hmoveto
          129 669 -129 hlineto
          166 -908 18 callsubr
          360 534 264 callsubr
        </CharString>
        <CharString name="uni013B">
          -154 238 -239 18 callsubr
          -16 108 rmoveto
          237 callsubr
        </CharString>
        <CharString name="uni013C">
          -402 217 hmoveto
          338 callsubr
          -5 -239 157 callsubr
        </CharString>
        <CharString name="uni0145">
          22 517 137 callgsubr
          -341 -861 157 callsubr
        </CharString>
        <CharString name="uni0146">
          -64 259 -239 18 callsubr
          7 534 6 callsubr
        </CharString>
        <CharString name="uni0156">
          -8 281 -239 18 callsubr
          -59 612 rmoveto
          242 -53 callsubr
          -219 -17 callsubr
          -242 hlineto
          274 -59 rmoveto
          53 214 callsubr
          -43 callgsubr
          -461 -622 134 223 140 hlineto
          136 -223 rlineto
          139 hlineto
          endchar
        </CharString>
        <CharString name="uni0157">
          -309 76 -239 18 callsubr
          225 535 236 callgsubr
        </CharString>
        <CharString name="uni015E">
          -46 457 90 -48 callgsubr
          -198 -492 157 callsubr
        </CharString>
        <CharString name="uni015F">
          -116 402 89 -48 callsubr
          -175 -420 157 callsubr
        </CharString>
        <CharString name="uni0162">
          -129 218 -239 18 callsubr
          351 671 225 callsubr
        </CharString>
        <CharString name="uni0163">
          -129 219 -239 18 callsubr
          350 671 225 callsubr
        </CharString>
        <CharString name="uni0218">
          -46 457 90 -48 callgsubr
          -198 -492 157 callsubr
        </CharString>
        <CharString name="uni0219">
          -116 402 89 -48 callsubr
          -177 -420 157 callsubr
        </CharString>
        <CharString name="uni021A">
          -129 222 -239 18 callsubr
          -212 671 rmoveto
          205 callgsubr
          59 vlineto
          endchar
        </CharString>
        <CharString name="uni021B">
          -323 118 -239 18 callsubr
          233 475 208 callsubr
        </CharString>
        <CharString name="uni02C9">
          -198 81 550 rmoveto
          346 58 -346 hlineto
          endchar
        </CharString>
        <CharString name="uni0901">
          -706 -310 685 rmoveto
          370 hlineto
          53 22 26 52 hvcurveto
          89 -119 -76 vlineto
          -26 -5 -68 callgsubr
          -221 339 callgsubr
          -119 -89 vlineto
          -52 22 -26 55 vhcurveto
          135 121 rmoveto
          98 95 -98 hlineto
          endchar
        </CharString>
        <CharString name="uni0902">
          -706 -254 687 34 callgsubr
          109 -137 hlineto
          endchar
        </CharString>
        <CharString name="uni0902.aMatraI">
          -706 79 683 302 callgsubr
        </CharString>
        <CharString name="uni0903">
          -304 156 428 rmoveto
          134 120 -134 hlineto
          -453 vmoveto
          134 120 -134 hlineto
          endchar
        </CharString>
        <CharString name="uni0905">
          365 1091 -1 callsubr
          -274 -59 callsubr
          136 vlineto
          endchar
        </CharString>
        <CharString name="uni0906">
          721 1446 -1 callsubr
          -629 -59 callsubr
          217 218 callgsubr
        </CharString>
        <CharString name="uni0907">
          41 650 111 callsubr
          117 59 -787 -59 532 -78 -344 34 callsubr
          endchar
        </CharString>
        <CharString name="uni0908">
          42 651 111 callsubr
          117 59 -155 115 186 callgsubr
          100 59 -192 hlineto
          98 callgsubr
          -128 -494 -59 532 -78 -344 34 callsubr
          endchar
        </CharString>
        <CharString name="uni09080902">
          42 652 111 callsubr
          116 59 -180 138 vlineto
          24 8 9 26 vhcurveto
          138 59 -236 332 callgsubr
          -155 -468 -59 533 -78 -345 34 callsubr
          491 234 rmoveto
          94 -93 -94 vlineto
          endchar
        </CharString>
        <CharString name="uni0909">
          14 740 -1 callsubr
          -760 -59 454 165 callsubr
          -133 -59 133 -85 callgsubr
          -187 -76 callgsubr
          -200 94 callsubr
          115 -138 -128 -98 callsubr
          384 -86 callgsubr
          205 vlineto
          37 -17 18 -34 1 vhcurveto
          3 vlineto
          34 2 17 17 38 vvcurveto
          133 vlineto
          16 -4 10 -8 5 vhcurveto
          148 hlineto
          endchar
        </CharString>
        <CharString name="uni090A">
          353 1079 -1 callsubr
          -1098 -59 457 126 callgsubr
          202 221 vlineto
          268 callgsubr
          -157 vlineto
          -26 -5 -68 callgsubr
          -175 -59 267 -67 callgsubr
          183 -61 callgsubr
          -353 hlineto
          1 -3 -4 0 -4 hhcurveto
          3 vlineto
          34 2 17 17 38 vvcurveto
          132 vlineto
          16 -4 10 -8 5 vhcurveto
          483 hlineto
          endchar
        </CharString>
        <CharString name="uni090B">
          63 callsubr
          449 hlineto
          24 7 -4 -25 hvcurveto
          -78 vlineto
          -24 -4 -9 -26 vhcurveto
          -161 hlineto
          -24 -7 6 24 hvcurveto
          47 -135 -59 vlineto
          -47 22 -30 49 vhcurveto
          340 hlineto
          55 23 27 50 hvcurveto
          98 vlineto
          42 -14 12 -25 6 vhcurveto
          4 vlineto
          27 5 12 18 52 vvcurveto
          94 244 callsubr
        </CharString>
        <CharString name="uni090C">
          424 1015 34 rmoveto
          529 135 59 -1170 -59 897 -78 -264 vlineto
          -36 -14 -16 -29 -4 hvcurveto
          -4 hlineto
          7 callgsubr
          -316 -72 callgsubr
          -103 callsubr
          220 -333 -185 332 callgsubr
          -121 vlineto
          -53 22 -22 53 vhcurveto
          352 59 -259 hlineto
          191 callsubr
          endchar
        </CharString>
        <CharString name="uni090D">
          78 588 685 rmoveto
          207 callgsubr
          90 -131 74 callgsubr
          587 -63 rmoveto
          -824 37 callgsubr
        </CharString>
        <CharString name="uni090E">
          78 804 -1 callsubr
          -116 43 hlineto
          76 callgsubr
          -570 -59 136 -485 vlineto
          47 callgsubr
        </CharString>
        <CharString name="uni090F">
          78 804 -1 callsubr
          -824 37 callgsubr
        </CharString>
        <CharString name="uni0910">
          78 804 -1 callsubr
          -120 212 callgsubr
          -571 37 callgsubr
        </CharString>
        <CharString name="uni0911">
          714 1248 685 rmoveto
          207 callgsubr
          90 -131 74 callgsubr
          562 -63 rmoveto
          -622 -59 callsubr
          210 218 callgsubr
        </CharString>
        <CharString name="uni0912">
          714 1439 -1 callsubr
          -136 43 hlineto
          76 callgsubr
          -348 -267 -240 4 vlineto
          -72 callsubr
          210 218 callgsubr
        </CharString>
        <CharString name="uni0913">
          714 1440 -1 callsubr
          -136 212 callgsubr
          -354 -59 callsubr
          211 218 callgsubr
        </CharString>
        <CharString name="uni0914">
          757 1482 -1 callsubr
          -136 hlineto
          -43 205 rlineto
          -106 115 callsubr
          -340 -59 callsubr
          210 218 callgsubr
        </CharString>
        <CharString name="uni0915">
          379 1105 342 callsubr
          -1125 -59 494 -392 vlineto
          -26 -8 -8 -26 vhcurveto
          -186 hlineto
          -26 -5 6 26 hvcurveto
          225 vlineto
          26 5 6 26 vhcurveto
          170 59 -262 hlineto
          -53 -24 -25 -53 hvcurveto
          -46 callsubr
        </CharString>
        <CharString name="uni0915093C">
          379 145 -95 -38 callsubr
          960 550 rmoveto
          59 -1125 -59 494 -392 vlineto
          -26 -8 -8 -26 vhcurveto
          -186 hlineto
          -26 -5 6 26 hvcurveto
          225 vlineto
          26 5 6 26 vhcurveto
          170 59 -262 hlineto
          -53 -24 -25 -53 hvcurveto
          -46 callsubr
        </CharString>
        <CharString name="uni0915093C094D">
          37 108 -95 -38 callsubr
          535 472 197 callsubr
          224 59 -855 -90 callgsubr
          265 59 hlineto
          endchar
        </CharString>
        <CharString name="uni0915093C094D0915093C">
          1125 108 -95 -38 callsubr
          784 -108 -38 callsubr
          329 158 rmoveto
          -95 callgsubr
          -528 hlineto
          -58 callsubr
          610 vlineto
          631 hmoveto
          59 -1872 -90 callgsubr
          188 hlineto
          -51 callsubr
        </CharString>
        <CharString name="uni0915093C094D0924">
          808 108 -95 -38 callsubr
          1153 472 rmoveto
          -618 hlineto
          -58 callsubr
          650 vlineto
          286 callsubr
          -1554 -59 494 -392 hlineto
          -107 callgsubr
          173 hlineto
          -40 callsubr
          -329 107 callgsubr
        </CharString>
        <CharString name="uni0915093C094D092B">
          1161 108 -95 -38 callsubr
          1145 158 -46 callgsubr
          -610 -78 197 callsubr
          233 -78 vlineto
          1045 78 rmoveto
          59 -1909 -90 callgsubr
          199 -270 hlineto
          -99 callgsubr
          299 hlineto
          14 11 3 6 7 hvcurveto
          -87 -91 callgsubr
        </CharString>
        <CharString name="uni0915093C094D092B093C">
          1161 108 -103 34 callgsubr
          109 -137 hlineto
          761 -101 -38 callsubr
          384 158 -46 callgsubr
          -610 -78 197 callsubr
          233 -78 vlineto
          1045 78 rmoveto
          59 -1909 -90 callgsubr
          199 -270 hlineto
          -99 callgsubr
          299 hlineto
          14 11 3 6 7 hvcurveto
          -87 -91 callgsubr
        </CharString>
        <CharString name="uni0915093C094D092C">
          854 108 -95 -38 callsubr
          870 413 rmoveto
          285 59 -620 hlineto
          -58 callsubr
          695 -248 vlineto
          297 callsubr
          -329 -43 13 callgsubr
          308 485 rmoveto
          -1600 -59 494 -392 hlineto
          -107 callgsubr
          175 hlineto
          125 callgsubr
        </CharString>
        <CharString name="uni0915093C094D092E">
          1090 108 -95 -38 callsubr
          1435 472 rmoveto
          -195 78 195 hlineto
          -333 -394 -99 callsubr
          59 vmoveto
          -567 hlineto
          -58 callsubr
          599 vlineto
          607 59 rmoveto
          -1837 -59 494 -392 hlineto
          -107 callgsubr
          166 hlineto
          -40 callsubr
          -71 callsubr
          195 -30 callgsubr
        </CharString>
        <CharString name="uni0915093C094D0930">
          380 318 -243 -38 callsubr
          788 698 rmoveto
          59 -1126 -59 495 -386 vlineto
          -26 -8 -8 -26 vhcurveto
          -186 hlineto
          -26 -6 6 25 hvcurveto
          220 vlineto
          26 6 6 26 vhcurveto
          170 59 -262 hlineto
          -53 -25 -25 -53 hvcurveto
          -246 -20 callgsubr
        </CharString>
        <CharString name="uni0915093C094D0930094D">
          35 318 -243 -38 callsubr
          326 620 73 callgsubr
        </CharString>
        <CharString name="uni0915094D">
          33 643 485 197 callsubr
          220 59 -851 -90 callgsubr
          257 59 hlineto
          endchar
        </CharString>
        <CharString name="uni0915094D0915">
          1113 1208 171 rmoveto
          -95 callgsubr
          -515 hlineto
          -58 callsubr
          597 vlineto
          631 hmoveto
          59 -1859 -90 callgsubr
          175 hlineto
          -51 callsubr
        </CharString>
        <CharString name="uni0915094D0916">
          1407 1185 325 rmoveto
          100 callsubr
          192 -338 hlineto
          -58 callsubr
          574 vlineto
          948 59 rmoveto
          -2153 -59 494 -392 hlineto
          -107 callgsubr
          198 -348 hlineto
          -99 callgsubr
          480 335 callsubr
          263 vlineto
          53 24 206 callsubr
          540 -347 vlineto
          -28 -11 -10 -28 vhcurveto
          -215 hlineto
          -26 -5 7 25 hvcurveto
          154 -31 callsubr
          209 59 -289 257 callsubr
          299 181 callgsubr
          136 vlineto
          endchar
        </CharString>
        <CharString name="uni0915094D091A">
          867 1319 171 rmoveto
          254 callsubr
          -506 hlineto
          -58 callsubr
          708 286 callgsubr
          -1613 -59 494 -392 hlineto
          -107 callgsubr
          207 304 callsubr
          369 -68 callsubr
        </CharString>
        <CharString name="uni0915094D091C">
          1110 1562 485 rmoveto
          77 callsubr
          -331 vlineto
          -58 callsubr
          951 286 callgsubr
          -1856 -59 494 -392 hlineto
          -107 callgsubr
          195 -270 hlineto
          20 callgsubr
        </CharString>
        <CharString name="uni0915094D091F">
          763 1206 485 rmoveto
          -563 hlineto
          -58 callsubr
          595 vlineto
          137 -137 275 callgsubr
          -1509 -90 callgsubr
          175 hlineto
          -40 callsubr
          4 callgsubr
          398 -86 callgsubr
          166 -138 -153 vlineto
          -26 -6 -6 -26 vhcurveto
          -214 -102 callgsubr
          endchar
        </CharString>
        <CharString name="uni0915094D0923">
          1107 1219 169 -21 callsubr
          -576 -78 197 callsubr
          210 -78 vlineto
          1011 137 rmoveto
          -1852 -59 494 -392 hlineto
          -107 callgsubr
          176 -270 hlineto
          -99 callgsubr
          265 callgsubr
        </CharString>
        <CharString name="uni0915094D0924">
          409 1135 342 callsubr
          -1155 -59 514 -78 -467 -59 79 vlineto
          -8 98 callsubr
          -317 -88 callsubr
          258 59 -166 -85 callsubr
          303 144 callgsubr
          232 -426 136 392 hlineto
          26 8 8 69 callsubr
          -303 -76 callgsubr
          -166 -59 258 -86 callgsubr
          329 -42 callgsubr
          -289 hlineto
          -58 callsubr
          vlineto
          endchar
        </CharString>
        <CharString name="uni0915094D0924094D092F">
          1486 1938 175 97 callsubr
          -2232 -59 494 -392 hlineto
          -107 callgsubr
          178 hlineto
          -40 callsubr
          4 callgsubr
          207 59 -116 315 callgsubr
          304 59 -652 hlineto
          -58 callsubr
          968 vlineto
          184 callgsubr
        </CharString>
        <CharString name="uni0915094D0924094D0930">
          830 1283 282 rmoveto
          -62 hlineto
          -142 141 rlineto
          54 -57 -47 8 -76 hhcurveto
          -256 hlineto
          -58 callsubr
          672 vlineto
          286 callsubr
          -1576 -59 494 -392 hlineto
          -107 callgsubr
          184 hlineto
          44 42 -7 -44 47 hvcurveto
          131 -128 -270 -247 rlineto
          169 hlineto
          229 213 rlineto
          62 -213 136 563 137 hlineto
          endchar
        </CharString>
        <CharString name="uni0915094D0924094D0935">
          1195 1647 171 rmoveto
          -83 callsubr
          -954 hlineto
          -58 callsubr
          1036 286 callgsubr
          -1941 -59 494 -392 hlineto
          -107 callgsubr
          171 hlineto
          -40 callsubr
          -329 -95 callsubr
          244 hlineto
          -40 callsubr
          86 callgsubr
          309 -68 callsubr
        </CharString>
        <CharString name="uni0915094D0925">
          1070 1796 622 35 callsubr
          -184 vlineto
          -58 callsubr
          69 59 -700 -90 callgsubr
          318 105 hlineto
          27 callgsubr
        </CharString>
        <CharString name="uni0915094D0926">
          772 1217 485 rmoveto
          -574 hlineto
          -58 callsubr
          606 vlineto
          138 -137 34 callgsubr
          143 59 -1518 -90 callgsubr
          170 hlineto
          -40 callsubr
          -19 callgsubr
        </CharString>
        <CharString name="uni0915094D0928">
          1085 1537 485 rmoveto
          -894 hlineto
          -58 callsubr
          926 vlineto
          -324 -394 rmoveto
          -26 -5 -106 callsubr
          236 hlineto
          599 196 rmoveto
          -1832 -59 494 -392 hlineto
          -107 callgsubr
          167 hlineto
          8 callsubr
        </CharString>
        <CharString name="uni0915094D092A">
          788 1240 -31 callgsubr
          -597 -78 197 callsubr
          220 -78 vlineto
          683 137 rmoveto
          -1534 -59 494 -392 hlineto
          -107 callgsubr
          186 -270 116 callgsubr
        </CharString>
        <CharString name="uni0915094D092A094D0930">
          792 1244 33 callsubr
          -601 -78 197 callsubr
          224 -78 vlineto
          683 137 rmoveto
          -1538 -59 494 -392 hlineto
          -107 callgsubr
          190 -233 124 callsubr
        </CharString>
        <CharString name="uni0915094D092B">
          1151 1241 -31 callgsubr
          -598 -78 197 callsubr
          221 -78 vlineto
          1045 78 rmoveto
          59 -1897 -90 callgsubr
          187 -270 hlineto
          -99 callgsubr
          299 hlineto
          14 11 3 6 7 hvcurveto
          -87 -91 callgsubr
        </CharString>
        <CharString name="uni0915094D092E">
          1098 1551 485 rmoveto
          -195 78 195 hlineto
          -333 -394 -99 callsubr
          59 vmoveto
          -575 hlineto
          -58 callsubr
          607 vlineto
          607 59 rmoveto
          -1845 -59 494 -392 hlineto
          -107 callgsubr
          174 hlineto
          -40 callsubr
          -71 callsubr
          195 -30 callgsubr
        </CharString>
        <CharString name="uni0915094D092F">
          1009 1461 175 -47 callgsubr
          -1755 -59 494 -392 hlineto
          -107 callgsubr
          173 59 -175 hlineto
          -58 callsubr
          491 vlineto
          -91 callsubr
        </CharString>
        <CharString name="uni0915094D0930">
          380 1106 342 callsubr
          -1126 -59 495 -386 vlineto
          -26 -8 -8 -26 vhcurveto
          -186 hlineto
          -26 -6 6 25 hvcurveto
          220 vlineto
          26 6 6 26 vhcurveto
          170 59 -262 hlineto
          -53 -25 -25 -53 hvcurveto
          -246 -20 callgsubr
        </CharString>
        <CharString name="uni0915094D0930.aTrad">
          48 callgsubr
        </CharString>
        <CharString name="uni0915094D0930094D">
          35 644 485 73 callgsubr
        </CharString>
        <CharString name="uni0915094D0932">
          1142 1594 277 callsubr
          -567 hlineto
          -58 callsubr
          983 286 callgsubr
          -1888 -59 494 -392 hlineto
          -107 callgsubr
          172 hlineto
          -40 callsubr
          -329 -49 callsubr
        </CharString>
        <CharString name="uni0915094D0935">
          780 1232 171 rmoveto
          -83 callsubr
          -539 hlineto
          -58 callsubr
          621 286 callgsubr
          -1526 -59 494 -392 hlineto
          -107 callgsubr
          169 hlineto
          -40 callsubr
          86 callgsubr
          309 -68 callsubr
        </CharString>
        <CharString name="uni0915094D0935094D092F">
          1462 1915 -101 callsubr
          -937 -426 rmoveto
          -104 callsubr
          200 59 -535 hlineto
          -58 callsubr
          945 vlineto
          179 callgsubr
          952 485 rmoveto
          -2209 -59 494 -392 hlineto
          -107 callgsubr
          164 hlineto
          -40 callsubr
          86 callgsubr
          355 50 callgsubr
        </CharString>
        <CharString name="uni0915094D0936">
          1126 894 -1 callsubr
          -97 callsubr
          -59 -173 vlineto
          -58 callsubr
          62 59 -693 -90 callgsubr
          308 105 hlineto
          175 callsubr
          196 -44 callsubr
          -176 vlineto
          -25 -7 -7 -26 vhcurveto
          -229 47 -138 -292 hlineto
          -99 callgsubr
          379 -86 callgsubr
          119 -138 -106 -76 callgsubr
          -196 94 callsubr
          173 322 108 callgsubr
          202 -61 callgsubr
          553 hmoveto
          -275 -622 147 callsubr
          137 hlineto
          endchar
        </CharString>
        <CharString name="uni0915094D0937">
          381 502 393 28 callsubr
          605 92 rmoveto
          -274 -260 -210 hlineto
          -53 callgsubr
          586 -303 317 callgsubr
        </CharString>
        <CharString name="uni0915094D0937094D">
          25 268 530 rmoveto
          175 callsubr
          169 -85 callgsubr
          -137 309 callsubr
          -169 hlineto
          -26 -7 5 26 hvcurveto
          634 -90 rmoveto
          59 -279 vlineto
          -53 callgsubr
          endchar
        </CharString>
        <CharString name="uni0915094D0937094D092E">
          1104 1557 485 rmoveto
          -196 78 196 hlineto
          -334 -394 -99 callsubr
          -721 -33 28 callsubr
          1328 92 rmoveto
          -1066 -59 459 173 callgsubr
          -45 -200 vlineto
          -53 callgsubr
          576 -147 185 callgsubr
          196 -426 83 callsubr
        </CharString>
        <CharString name="uni0915094D0937094D092E094D">
          738 1226 169 -99 callsubr
          -724 -33 28 callsubr
          1098 -45 rmoveto
          -236 78 211 59 -827 -59 478 173 callgsubr
          -45 -203 vlineto
          -53 callgsubr
          579 -147 185 callgsubr
          236 vlineto
          endchar
        </CharString>
        <CharString name="uni0915094D0937094D092E094D092F">
          1744 2196 -101 callsubr
          -973 -394 -99 callsubr
          -721 -33 28 callsubr
          1968 92 rmoveto
          -1703 -59 456 173 callgsubr
          -45 -200 vlineto
          -53 callgsubr
          576 -147 185 callgsubr
          193 59 -193 78 476 vlineto
          -91 callsubr
        </CharString>
        <CharString name="uni0915094D0937094D092F">
          1005 1457 329 callsubr
          -6 6 26 hvcurveto
          136 239 41 callsubr
          150 223 callgsubr
          -955 -168 rmoveto
          340 callsubr
          -169 hlineto
          -26 -7 5 26 hvcurveto
          135 130 callgsubr
          169 -85 callgsubr
          1229 92 rmoveto
          -978 -59 345 -85 callgsubr
          -135 -76 callgsubr
          -475 hlineto
          8 6 4 11 18 vvcurveto
          145 74 callsubr
          -145 vlineto
          -18 4 -11 8 -6 vhcurveto
          -51 -2 -18 -31 -47 vvcurveto
          -128 -98 callsubr
          308 197 callgsubr
          224 -138 -49 vlineto
          298 callgsubr
          -213 94 callsubr
          104 -31 callsubr
          566 -149 hlineto
          -99 callgsubr
          531 294 callgsubr
        </CharString>
        <CharString name="uni0915094D0937094D0935">
          797 502 393 28 callsubr
          1021 92 rmoveto
          -766 -59 493 -392 hlineto
          -26 -8 -8 -26 vhcurveto
          -215 164 callsubr
          -45 -208 vlineto
          -53 callgsubr
          584 -147 hlineto
          -99 callgsubr
          309 -16 callgsubr
        </CharString>
        <CharString name="uni0915094D0938">
          1104 1556 339 rmoveto
          -202 hlineto
          -80 callsubr
          213 hlineto
          -339 -192 234 callgsubr
          614 91 rmoveto
          -1851 -59 494 -392 hlineto
          -107 callgsubr
          169 330 callsubr
          25 25 53 hvcurveto
          136 -138 -123 vlineto
          -26 -6 11 callsubr
        </CharString>
        <CharString name="uni0915094D0938094D091F">
          1525 1659 485 rmoveto
          -97 callsubr
          -68 -209 vlineto
          -80 callsubr
          607 -78 hlineto
          -733 -114 148 callsubr
          870 -105 275 callgsubr
          -2271 -90 callgsubr
          188 -43 callsubr
          610 -202 -88 callsubr
          398 -86 callgsubr
          166 -138 -153 vlineto
          -26 -6 -6 -26 vhcurveto
          -214 -102 callgsubr
          endchar
        </CharString>
        <CharString name="uni0915094D0938094D0921">
          1501 1649 485 rmoveto
          -64 callsubr
          -68 -199 vlineto
          -80 callsubr
          594 -78 hlineto
          -720 -114 rmoveto
          -9 callsubr
          137 -1 9 -328 hlineto
          -58 callsubr
          594 vlineto
          268 callgsubr
          857 -105 334 callgsubr
          -2248 -90 callgsubr
          189 -43 callsubr
          611 vlineto
          -19 12 22 -9 32 hhcurveto
          -64 callgsubr
        </CharString>
        <CharString name="uni0915094D0938094D0924">
          1570 2023 485 rmoveto
          -366 -72 callgsubr
          -68 -207 vlineto
          -80 callsubr
          662 hlineto
          -788 -192 148 callsubr
          1061 91 rmoveto
          -2316 -59 494 -392 hlineto
          -107 callgsubr
          188 -43 callsubr
          608 -202 107 callgsubr
        </CharString>
        <CharString name="uni0915094D0938094D092A094D0930">
          1543 1995 33 callsubr
          -623 -224 rmoveto
          -80 callsubr
          225 -224 hlineto
          -351 32 148 callsubr
          1034 91 rmoveto
          -2289 -59 494 -392 hlineto
          -107 callgsubr
          188 -43 callsubr
          615 -87 73 callsubr
        </CharString>
        <CharString name="uni0915094D0938094D092A094D0932">
          2280 2732 485 rmoveto
          -264 hlineto
          -36 -13 -16 -29 -5 hvcurveto
          -4 hlineto
          7 callgsubr
          -316 hlineto
          -64 callsubr
          -237 vlineto
          -24 -8 -9 222 callgsubr
          394 1039 vlineto
          -1378 -224 rmoveto
          -80 callsubr
          216 -224 hlineto
          -342 32 234 callgsubr
          1789 91 rmoveto
          -3026 -59 494 -392 hlineto
          -107 callgsubr
          169 330 callsubr
          25 25 53 hvcurveto
          136 -138 -123 136 callgsubr
          189 607 239 callsubr
          288 hlineto
          12 195 callgsubr
          -3 -98 callsubr
          295 59 -203 315 callgsubr
          186 hlineto
          26 8 235 callsubr
        </CharString>
        <CharString name="uni0916">
          663 1389 622 49 callgsubr
        </CharString>
        <CharString name="uni0916093C">
          663 474 -173 -38 callsubr
          915 687 49 callgsubr
        </CharString>
        <CharString name="uni0916093C094D">
          312 439 -173 -38 callsubr
          -202 299 rmoveto
          262 hlineto
          116 callsubr
          499 59 -1096 -59 461 -238 vlineto
          18 callgsubr
          -385 172 callsubr
          626 87 rmoveto
          -12 callsubr
          386 58 hlineto
          endchar
        </CharString>
        <CharString name="uni0916093C094D0924">
          1093 159 callsubr
          1380 694 rmoveto
          -1839 -77 callsubr
          968 -78 -365 316 callsubr
          -205 210 callgsubr
          289 hlineto
          12 195 callgsubr
          -45 -95 callsubr
          273 43 callgsubr
        </CharString>
        <CharString name="uni0916093C094D092E">
          1397 159 callsubr
          1411 557 rmoveto
          -196 78 196 hlineto
          -334 -394 -99 callsubr
          607 196 rmoveto
          -2143 -77 callsubr
          939 -78 -322 316 callsubr
          -33 callgsubr
          14 11 2 3 9 hvcurveto
          -32 327 callgsubr
          382 86 callsubr
          196 -426 83 callsubr
        </CharString>
        <CharString name="uni0916093C094D092F">
          1307 159 callsubr
          1321 247 2 callgsubr
        </CharString>
        <CharString name="uni0916093C094D0930">
          633 908 -243 -38 callsubr
          481 757 rmoveto
          -1409 -59 461 -236 hlineto
          338 callgsubr
          167 -138 -385 -5 callsubr
        </CharString>
        <CharString name="uni0916093C094D0930094D">
          134 callgsubr
          693 -334 -38 callsubr
          -67 316 145 callgsubr
        </CharString>
        <CharString name="uni0916093C094D0935">
          1082 159 callsubr
          1369 694 rmoveto
          -1828 -77 callsubr
          958 122 callsubr
          -216 -105 callsubr
          200 59 -292 -72 callgsubr
          -207 vlineto
          228 callgsubr
          -33 callgsubr
          13 11 1 3 9 hvcurveto
          -31 327 callgsubr
          310 -16 callgsubr
        </CharString>
        <CharString name="uni0916093C094D0936">
          1402 159 callsubr
          -202 306 rmoveto
          262 hlineto
          116 callsubr
          352 59 -949 -4 callgsubr
        </CharString>
        <CharString name="uni0916093C094D0938">
          1406 159 callsubr
          1419 411 rmoveto
          -203 hlineto
          -80 callsubr
          214 hlineto
          275 59 rmoveto
          -2153 -77 callsubr
          910 vlineto
          268 callgsubr
          -160 vlineto
          -9 callsubr
          137 -138 -264 275 callsubr
          -33 callgsubr
          12 195 callgsubr
          -45 vlineto
          -28 callgsubr
        </CharString>
        <CharString name="uni0916094D">
          317 237 234 rmoveto
          262 hlineto
          116 callsubr
          505 59 -1102 -59 461 -238 vlineto
          18 callgsubr
          -385 172 callsubr
          626 87 rmoveto
          -12 callsubr
          391 58 hlineto
          endchar
        </CharString>
        <CharString name="uni0916094D0916">
          1683 2409 -1 callsubr
          -2429 -77 callsubr
          884 -238 vlineto
          18 callgsubr
          -251 275 callsubr
          -222 316 callgsubr
          208 59 -288 313 callgsubr
          306 hlineto
          12 195 callgsubr
          -45 vlineto
          94 callgsubr
          539 -347 vlineto
          -28 -10 -10 -28 vhcurveto
          -215 hlineto
          -12 callsubr
          298 181 callgsubr
          137 vlineto
          endchar
        </CharString>
        <CharString name="uni0916094D0924">
          1093 1819 -1 callsubr
          -1839 -77 callsubr
          968 -78 -366 316 callsubr
          -204 210 callgsubr
          288 hlineto
          12 195 callgsubr
          -45 70 callgsubr
          137 hlineto
          endchar
        </CharString>
        <CharString name="uni0916094D0928">
          1407 1535 169 -99 callsubr
          598 196 rmoveto
          -2153 -77 callsubr
          1282 291 callsubr
          -235 hlineto
          -12 callsubr
          319 hlineto
          14 11 2 3 9 hvcurveto
          -32 327 callgsubr
          381 -6 callsubr
        </CharString>
        <CharString name="uni0916094D092E">
          1397 1849 485 rmoveto
          -196 78 196 hlineto
          -334 -394 rmoveto
          -26 -5 -106 callsubr
          236 hlineto
          608 196 rmoveto
          -2143 -77 callsubr
          938 -78 -321 316 callsubr
          -33 callgsubr
          14 11 2 3 9 hvcurveto
          -32 327 callgsubr
          61 callsubr
          196 -426 -73 callgsubr
        </CharString>
        <CharString name="uni0916094D092F">
          1307 1760 175 2 callgsubr
        </CharString>
        <CharString name="uni0916094D0930">
          663 1389 -1 callsubr
          -1409 -59 461 -236 hlineto
          338 callgsubr
          167 -138 -385 -5 callsubr
        </CharString>
        <CharString name="uni0916094D0930094D">
          134 callgsubr
          626 90 145 callgsubr
        </CharString>
        <CharString name="uni0916094D0935">
          1082 1808 -1 callsubr
          -1828 -77 callsubr
          957 -392 vlineto
          -26 -8 -8 -26 vhcurveto
          -215 164 callsubr
          -207 vlineto
          228 callgsubr
          -33 callgsubr
          13 11 1 3 9 hvcurveto
          -31 9 24 -15 41 201 callgsubr
        </CharString>
        <CharString name="uni0916094D0936">
          1402 237 234 rmoveto
          262 hlineto
          116 callsubr
          347 59 -944 -4 callgsubr
        </CharString>
        <CharString name="uni0917">
          394 235 137 rmoveto
          -57 callsubr
          635 485 rmoveto
          -1140 -59 -69 callsubr
          193 -563 83 callsubr
        </CharString>
        <CharString name="uni0917093C">
          394 294 -95 -38 callsubr
          -59 124 rmoveto
          -57 callsubr
          635 485 rmoveto
          -1140 -59 -69 callsubr
          193 -563 83 callsubr
        </CharString>
        <CharString name="uni0917093C094D">
          27 292 -95 -38 callsubr
          -57 124 rmoveto
          -57 callsubr
          268 485 rmoveto
          -773 -59 -69 callsubr
          99 vlineto
          endchar
        </CharString>
        <CharString name="uni0917093C094D0930">
          341 648 -260 -38 callsubr
          -416 306 65 callsubr
        </CharString>
        <CharString name="uni0917093C094D0930094D">
          115 callgsubr
          292 6 rmoveto
          -55 77 -369 -331 rlineto
          163 hlineto
          -37 -185 302 callgsubr
        </CharString>
        <CharString name="uni0917094D">
          26 235 137 rmoveto
          -57 callsubr
          267 485 rmoveto
          -772 -59 219 callgsubr
          vlineto
          endchar
        </CharString>
        <CharString name="uni0917094D0917">
          1131 972 137 rmoveto
          -57 callsubr
          -987 hmoveto
          -57 callsubr
          1372 485 rmoveto
          -1877 -59 -69 callsubr
          600 -137 -365 vlineto
          319 callgsubr
          425 -67 callgsubr
          407 193 -563 83 callsubr
        </CharString>
        <CharString name="uni0917094D0918">
          916 1368 171 rmoveto
          -77 callgsubr
          -330 71 callgsubr
          364 hlineto
          -1133 -426 rmoveto
          -57 callsubr
          1157 485 rmoveto
          -1662 -59 -69 callsubr
          191 vlineto
          24 callgsubr
          424 -13 callsubr
        </CharString>
        <CharString name="uni0917094D091C">
          1107 235 137 rmoveto
          -57 callsubr
          1348 485 rmoveto
          -1853 -59 -69 callsubr
          905 -78 -325 -316 vlineto
          -84 callsubr
          190 105 callgsubr
          vlineto
          endchar
        </CharString>
        <CharString name="uni0917094D0923">
          1122 1235 169 -21 callsubr
          -1000 -426 rmoveto
          -57 callsubr
          1363 485 rmoveto
          -1868 -59 -69 callsubr
          183 220 callgsubr
        </CharString>
        <CharString name="uni0917094D0926">
          778 235 137 rmoveto
          -57 callsubr
          876 289 34 callgsubr
          143 59 -1524 -59 537 -137 -365 vlineto
          319 callgsubr
          425 -67 callgsubr
          407 569 -78 -326 vlineto
          -53 -24 -25 -53 hvcurveto
          -19 callgsubr
        </CharString>
        <CharString name="uni0917094D0927">
          1073 112 callsubr
          1819 hmoveto
          118 callgsubr
          -471 hlineto
          -78 callsubr
          565 -16 callgsubr
        </CharString>
        <CharString name="uni0917094D0927094D092F">
          1659 35 callgsubr
          2132 -447 46 callsubr
          -29 vhcurveto
          -421 -60 callsubr
          225 -96 callsubr
          286 callsubr
          -942 -59 310 hlineto
          -22 callsubr
          -271 -198 275 callsubr
          -445 94 callsubr
          99 -31 callsubr
          142 59 -142 hlineto
          -26 -5 167 callgsubr
          5 -33 callsubr
          -24 78 callgsubr
          -113 -98 callsubr
          541 -62 callgsubr
          282 callsubr
        </CharString>
        <CharString name="uni0917094D0927094D0935">
          1453 35 callgsubr
          2199 hmoveto
          -733 -59 459 -392 hlineto
          -26 -8 -8 -26 vhcurveto
          -215 164 callsubr
          -237 40 callsubr
          -449 94 callsubr
          99 -31 callsubr
          142 59 -142 hlineto
          -26 -5 167 callgsubr
          5 -33 callsubr
          -24 78 callgsubr
          -113 -98 callsubr
          545 -62 callgsubr
          309 -68 callsubr
        </CharString>
        <CharString name="uni0917094D0928">
          1084 1212 169 rmoveto
          -26 -5 -106 callsubr
          236 hlineto
          -977 -289 rmoveto
          -57 callsubr
          1326 485 rmoveto
          -1831 -59 -69 callsubr
          882 -78 -649 vlineto
          -53 -24 -25 -53 hvcurveto
          27 callsubr
        </CharString>
        <CharString name="uni0917094D0928094D092F">
          1757 1240 154 callsubr
          326 hmoveto
          59 -651 vlineto
          263 callgsubr
          vlineto
          835 -251 -105 callgsubr
          -1974 -426 rmoveto
          -57 callsubr
          1998 485 rmoveto
          -2503 -59 -69 callsubr
          1196 vlineto
          -91 callsubr
        </CharString>
        <CharString name="uni0917094D092C">
          855 987 244 callgsubr
          -1038 hmoveto
          -57 callsubr
          1096 485 rmoveto
          -1601 -59 -69 callsubr
          653 -248 vlineto
          297 callsubr
          -337 246 rlineto
          285 59 -367 hlineto
          -53 -24 -25 -53 hvcurveto
          101 callsubr
        </CharString>
        <CharString name="uni0917094D092D">
          1134 112 callsubr
          1274 -454 13 callsubr
          606 311 rmoveto
          -273 -252 -195 174 hlineto
          -41 callgsubr
          195 -311 83 callsubr
        </CharString>
        <CharString name="uni0917094D092D094D092F">
          1729 35 callgsubr
          2202 -447 46 callsubr
          -29 vhcurveto
          -421 94 callsubr
          142 224 vlineto
          -56 callgsubr
          143 223 callgsubr
          -948 -395 13 callsubr
          1221 311 rmoveto
          -963 -59 331 247 callsubr
          -25 -6 -7 -26 vhcurveto
          -451 174 hlineto
          -41 callgsubr
          181 -155 -98 callsubr
          282 callsubr
        </CharString>
        <CharString name="uni0917094D092E">
          1114 1567 485 rmoveto
          -195 78 195 hlineto
          -333 -394 -99 callsubr
          -999 -289 rmoveto
          -57 callsubr
          1356 485 rmoveto
          -1861 -59 -69 callsubr
          580 -78 323 callgsubr
          -71 callsubr
          195 -30 callgsubr
        </CharString>
        <CharString name="uni0917094D092F">
          996 1448 -101 callsubr
          -1213 -426 rmoveto
          -57 callsubr
          1237 485 rmoveto
          -1742 -59 -69 callsubr
          435 vlineto
          -91 callsubr
        </CharString>
        <CharString name="uni0917094D0930">
          387 232 154 65 callsubr
        </CharString>
        <CharString name="uni0917094D0930094D">
          115 callgsubr
          237 83 rmoveto
          -369 -331 rlineto
          163 hlineto
          261 254 rlineto
          endchar
        </CharString>
        <CharString name="uni0917094D0930094D092F">
          1014 1466 -101 callsubr
          -1234 -409 79 callsubr
          1258 468 rmoveto
          -1760 55 callsubr
          390 460 vlineto
          -83 callgsubr
          -168 hlineto
          -307 -275 rlineto
          163 hlineto
          171 166 rlineto
          -9 12 17 -4 22 hhcurveto
          -81 callgsubr
        </CharString>
        <CharString name="uni0917094D0932">
          1163 235 137 rmoveto
          -57 callsubr
          1404 485 rmoveto
          -1909 -59 -69 callsubr
          961 -78 -264 vlineto
          -36 -14 -16 -29 -4 hvcurveto
          -4 hlineto
          7 callgsubr
          -316 -72 callgsubr
          -329 -49 callsubr
        </CharString>
        <CharString name="uni0917094D0935">
          793 235 137 rmoveto
          -57 callsubr
          1034 485 rmoveto
          -1539 -59 -69 callsubr
          591 -392 vlineto
          -26 -8 -8 -26 vhcurveto
          -215 164 callsubr
          86 callgsubr
          309 -68 callsubr
        </CharString>
        <CharString name="uni0917094D0938">
          1127 1579 339 rmoveto
          -203 hlineto
          -80 callsubr
          214 hlineto
          -1344 -426 rmoveto
          -57 callsubr
          1369 485 rmoveto
          -1874 -59 -69 callsubr
          554 vlineto
          -101 callgsubr
          604 -280 147 callsubr
          137 vlineto
          endchar
        </CharString>
        <CharString name="uni0918">
          182 634 171 rmoveto
          -77 callgsubr
          -330 71 callgsubr
          364 hlineto
          142 callgsubr
          -928 -59 131 hlineto
          24 callgsubr
          424 -13 callsubr
        </CharString>
        <CharString name="uni0918094D">
          -201 270 137 211 callgsubr
          328 59 -618 -59 131 hlineto
          24 callgsubr
          488 59 hlineto
          endchar
        </CharString>
        <CharString name="uni0918094D0928">
          904 1355 485 rmoveto
          -649 hlineto
          -53 -24 328 callsubr
          -324 71 callgsubr
          1085 hlineto
          -324 -394 rmoveto
          -26 -5 -106 callsubr
          236 hlineto
          599 196 rmoveto
          -1650 -59 131 hlineto
          24 callgsubr
          420 58 callgsubr
          190 -426 3 callsubr
        </CharString>
        <CharString name="uni0918094D092E">
          909 1362 485 rmoveto
          -195 78 195 hlineto
          -333 -394 -99 callsubr
          -400 -256 rmoveto
          28 callgsubr
          -325 71 callgsubr
          759 173 callgsubr
          1007 215 rmoveto
          -1656 -59 131 hlineto
          24 callgsubr
          421 62 callsubr
        </CharString>
        <CharString name="uni0918094D092F">
          820 1272 -101 callsubr
          -1002 -426 211 callgsubr
          643 52 callsubr
          951 485 rmoveto
          -1566 -59 131 hlineto
          24 callgsubr
          421 50 callsubr
        </CharString>
        <CharString name="uni0918094D0930">
          184 636 185 rmoveto
          -77 callgsubr
          -330 95 callsubr
          105 -107 callsubr
          180 59 -180 -85 callsubr
          121 -107 callsubr
          364 hlineto
          142 callgsubr
          -930 345 callsubr
          -127 vlineto
          268 callsubr
          297 hlineto
          -159 -156 rlineto
          154 hlineto
          165 167 rlineto
          -103 -62 callsubr
        </CharString>
        <CharString name="uni0918094D0930094D">
          -184 102 405 rmoveto
          268 callsubr
          294 hlineto
          -159 -156 rlineto
          157 hlineto
          168 170 rlineto
          34 45 -401 95 callsubr
          105 -107 callsubr
          180 59 -180 -85 callsubr
          121 -107 callsubr
          270 59 -562 345 callsubr
          endchar
        </CharString>
        <CharString name="uni0919">
          147 693 305 57 callgsubr
        </CharString>
        <CharString name="uni0919094D">
          147 295 -61 45 callgsubr
          258 366 57 callgsubr
        </CharString>
        <CharString name="uni0919094D0930">
          148 694 305 rmoveto
          101 91 -101 hlineto
          -714 226 rmoveto
          -59 496 306 callgsubr
          -82 306 callsubr
          26 6 -6 -26 hvcurveto
          -119 259 callsubr
          68 -137 -81 vlineto
          -53 24 251 callgsubr
          74 147 callgsubr
          145 110 callsubr
          56 130 callgsubr
          351 137 261 59 hlineto
          endchar
        </CharString>
        <CharString name="uni091A">
          328 callgsubr
          -392 hlineto
          -26 -8 -8 -26 vhcurveto
          -276 hlineto
          -8 callgsubr
          370 14 callgsubr
          136 vlineto
          endchar
        </CharString>
        <CharString name="uni091A094D">
          -238 560 -1 callsubr
          -580 -59 580 hlineto
          -279 -426 rmoveto
          -8 callgsubr
          428 59 hlineto
          endchar
        </CharString>
        <CharString name="uni091A094D091A">
          618 1344 -1 callsubr
          -1364 -59 1085 149 callsubr
          -387 -59 90 224 callgsubr
          -225 40 callsubr
          -270 -85 callsubr
          225 144 callgsubr
          138 59 -390 -59 96 304 callsubr
          366 -62 callgsubr
          370 14 callgsubr
          142 vlineto
          endchar
        </CharString>
        <CharString name="uni091A094D091B">
          841 1130 485 rmoveto
          -104 -54 callsubr
          366 hlineto
          437 hmoveto
          59 -1587 -59 626 170 callsubr
          -80 -1 40 callsubr
          -279 hlineto
          -8 callgsubr
          375 hlineto
          12 10 1 3 9 hvcurveto
          -4 152 callgsubr
        </CharString>
        <CharString name="uni091A094D091B094D0935">
          838 1151 42 callgsubr
          -1584 -59 619 170 callsubr
          -80 40 callsubr
          -273 hlineto
          -8 callgsubr
          369 hlineto
          13 10 1 3 9 hvcurveto
          -38 6 24 -18 45 hhcurveto
          156 callgsubr
        </CharString>
        <CharString name="uni091A094D0928">
          864 992 169 -99 callsubr
          598 196 rmoveto
          -1610 -59 1336 -78 299 callsubr
          -274 hlineto
          -8 callgsubr
          370 -62 callgsubr
          381 349 callgsubr
          -30 callgsubr
        </CharString>
        <CharString name="uni091A094D092E">
          859 1312 485 rmoveto
          -195 78 195 hlineto
          -333 -394 -99 callsubr
          607 196 rmoveto
          -1606 -59 999 173 callgsubr
          -237 40 callsubr
          -264 hlineto
          -8 callgsubr
          360 62 callsubr
        </CharString>
        <CharString name="uni091A094D092F">
          768 1220 175 -47 callgsubr
          -1514 -59 881 52 callsubr
          -262 hlineto
          -8 callgsubr
          358 50 callsubr
        </CharString>
        <CharString name="uni091A094D0930">
          328 callgsubr
          -378 227 callgsubr
          25 hvcurveto
          212 54 callsubr
          -226 -2 callgsubr
          240 hlineto
          -157 -156 rlineto
          156 hlineto
          163 167 rlineto
          -103 83 callsubr
        </CharString>
        <CharString name="uni091A094D0930094D">
          -226 -20 563 rmoveto
          520 59 -520 hlineto
          47 -196 rmoveto
          325 callgsubr
          -226 -2 callgsubr
          240 hlineto
          -157 -156 rlineto
          156 hlineto
          170 174 rlineto
          39 41 -356 95 callsubr
          212 117 callsubr
          hlineto
          endchar
        </CharString>
        <CharString name="uni091B">
          349 638 485 rmoveto
          -104 -54 callsubr
          366 hlineto
          437 hmoveto
          59 -1095 -59 134 170 callsubr
          -172 152 callgsubr
        </CharString>
        <CharString name="uni091B094D">
          348 1074 342 callsubr
          -1094 -59 134 170 callsubr
          -172 269 callgsubr
          -344 -54 callsubr
          endchar
        </CharString>
        <CharString name="uni091B094D0928">
          350 657 485 rmoveto
          -123 -72 callgsubr
          -137 -88 callsubr
          177 59 -97 46 callgsubr
          111 -107 callsubr
          187 -44 callsubr
          -284 vlineto
          -25 -7 -7 -26 vhcurveto
          -529 hlineto
          -26 -5 7 25 hvcurveto
          144 -31 callsubr
          138 59 -138 94 callsubr
          154 -31 callsubr
          385 hlineto
          419 hmoveto
          59 -1096 -59 134 vlineto
          -7 98 callsubr
          -160 vlineto
          -37 16 341 callgsubr
          -5 vlineto
          -34 -1 -16 -16 -38 vvcurveto
          -159 -98 callsubr
          460 -79 -337 hlineto
          98 callgsubr
          -61 137 48 vlineto
          25 253 callgsubr
          245 -130 131 268 107 -86 callgsubr
          310 -42 callgsubr
          -93 78 hlineto
          endchar
        </CharString>
        <CharString name="uni091B094D092F">
          1306 1758 21 callsubr
          -602 0 hlineto
          -4 -3 0 -4 hhcurveto
          -344 -54 callsubr
          1486 hlineto
          142 callgsubr
          -2052 -59 134 hlineto
          23 callgsubr
          -172 102 callsubr
          7 0 6 -1 6 vhcurveto
          444 90 callsubr
        </CharString>
        <CharString name="uni091B094D0930">
          349 643 485 rmoveto
          -109 84 callgsubr
          371 hlineto
          432 hmoveto
          59 -1095 -59 134 170 callsubr
          -167 30 callgsubr
          252 hlineto
          -97 -164 rlineto
          134 hlineto
          74 143 71 -143 rlineto
          134 hlineto
          -93 164 rlineto
          223 147 callgsubr
          324 -42 callgsubr
          -108 78 hlineto
          endchar
        </CharString>
</ttFont>
